<svg width="165" height="146" viewBox="0 0 165 146" fill="none" xmlns="http://www.w3.org/2000/svg">
<path d="M22.8237 122.455C22.7237 121.955 22.8237 121.755 22.7237 121.555C18.0237 112.755 14.9237 103.355 11.5237 94.0545C8.02365 84.4545 4.52365 74.8545 2.12365 64.8545C0.923654 59.2545 -0.176346 53.6545 0.0236545 47.9545C0.123654 46.2545 0.323654 44.4545 0.923654 42.7545C2.02365 39.3545 5.02365 37.9545 8.42365 39.2545C9.82365 39.7545 11.1237 40.5545 12.3237 41.5545C14.2237 43.0545 15.9237 44.7545 17.7237 46.3545C18.6237 47.1545 19.5237 47.9545 20.5237 48.6545C22.5237 49.9545 24.1237 49.5545 25.4237 47.6545C26.7237 45.7545 27.2237 43.5545 27.4237 41.3545C27.6237 38.1545 27.0237 35.1545 26.1237 32.1545C24.1237 25.5545 21.3237 19.2545 17.6237 13.4545C16.1237 11.0545 14.7237 8.65451 13.3237 6.25451C12.8237 5.45451 12.5237 4.45451 12.4237 3.55451C12.3237 3.05451 12.8237 2.15451 13.2237 2.05451C13.7237 1.85451 14.5237 2.25451 15.1237 2.45451C15.3237 2.55451 15.4237 2.85451 15.5237 3.05451C18.0237 6.75451 20.6237 10.5545 23.0237 14.5545C27.1237 21.2545 30.2237 28.4545 31.8237 36.2545C32.5237 39.9545 32.5237 43.6545 31.1237 47.1545C30.5237 48.7545 29.6237 50.3545 28.5237 51.6545C25.9237 54.6545 22.1237 55.2545 18.7237 53.2545C17.0237 52.2545 15.5237 50.8545 14.0237 49.5545C12.1237 48.0545 10.3237 46.4545 8.52365 44.9545C8.02365 44.5545 7.22365 44.3545 6.62365 44.0545C5.62365 45.0545 5.82365 46.2545 5.72365 47.3545C5.62365 53.4545 6.62365 59.4545 8.42365 65.3545C12.1237 77.5545 16.0237 89.6545 19.8237 101.755C21.3237 106.455 22.7237 111.155 24.3237 116.255C24.6237 115.555 24.8237 115.155 25.0237 114.655C25.6237 112.755 26.1237 110.855 26.8237 108.955C27.1237 108.155 27.5237 107.355 28.1237 106.655C28.7237 105.855 29.7237 105.555 30.5237 106.155C31.1237 106.555 31.5237 107.355 31.7237 108.055C31.9237 108.755 31.7237 109.455 31.5237 110.155C30.1237 115.655 28.8237 121.155 27.3237 126.655C26.5237 129.455 24.3237 130.455 21.7237 129.055C20.3237 128.355 18.9237 127.355 17.9237 126.155C14.0237 121.955 10.2237 117.555 6.52365 113.155C5.82365 112.355 5.22365 111.255 4.82365 110.255C4.42365 109.055 5.22365 108.255 6.32365 108.855C7.82365 109.655 9.42365 110.555 10.7237 111.755C13.7237 114.455 16.5237 117.255 19.4237 119.955C20.2237 120.655 20.9237 121.355 21.7237 122.055C22.0237 122.055 22.3237 122.155 22.8237 122.455Z" fill="black"/>
<path d="M151.831 135.904C152.231 135.204 152.331 135.004 152.431 134.804C152.531 134.504 152.631 134.204 152.831 133.704C151.031 133.704 150.431 132.404 149.931 131.004C148.331 126.204 147.631 121.204 147.131 116.204C146.231 106.804 145.531 97.4038 144.631 88.0038C144.331 84.8038 143.831 81.6038 143.131 78.6038C142.131 74.7038 141.231 74.4038 137.531 76.1038C136.631 76.5038 135.631 77.0038 134.631 77.3038C130.931 78.5038 127.831 77.1038 126.731 73.3038C126.031 71.0038 125.731 68.4038 125.631 66.0038C125.331 59.0038 125.831 51.9038 126.731 44.9038C127.931 35.0038 129.331 25.1038 130.631 15.2038C130.931 13.2038 131.031 11.2038 131.131 9.20377C131.031 8.70377 130.931 8.00377 130.831 7.00377C129.631 7.90377 128.631 8.50377 127.731 9.30377C122.031 14.1038 117.031 19.6038 112.331 25.4038C106.631 32.4038 101.431 39.8038 96.9307 47.7038C96.5307 48.3038 96.2307 49.0038 95.7307 49.5038C94.9307 50.5038 94.0307 50.9038 92.7307 50.5038C91.6307 50.1038 90.8307 49.0038 91.0307 47.7038C91.1307 46.8038 91.3307 45.8038 91.8307 44.9038C93.0307 42.4038 94.2307 39.8038 95.6307 37.4038C102.731 25.7038 111.331 15.2038 121.431 6.00377C123.031 4.50377 124.931 3.20377 126.731 1.80377C127.031 1.60377 127.431 1.40377 127.731 1.20377C133.031 -1.59623 137.431 0.603767 137.531 6.60377C137.631 10.9038 137.231 15.2038 136.731 19.5038C135.431 31.1038 133.731 42.7038 132.531 54.3038C132.031 58.9038 132.231 63.6038 132.231 68.2038C132.231 69.2038 132.531 70.2038 132.731 71.4038C134.231 70.7038 135.431 70.2038 136.731 69.7038C141.831 67.6038 145.631 69.0038 148.131 73.9038C150.031 77.6038 150.731 81.6038 150.931 85.7038C151.631 99.9038 152.131 114.104 152.731 128.404C152.831 129.704 152.731 130.904 152.731 132.504C153.931 132.004 153.931 131.004 154.231 130.304C156.331 124.204 158.831 118.204 161.931 112.504C162.531 111.504 163.231 110.504 164.031 109.204C164.831 110.804 164.831 112.004 164.631 113.204C163.731 117.904 163.031 122.704 161.931 127.304C160.831 131.904 159.131 136.304 157.731 140.804C157.431 141.804 157.031 142.804 156.531 143.604C155.031 145.904 152.431 146.204 150.331 144.404C149.931 144.104 149.631 143.704 149.331 143.304C146.331 139.204 143.231 135.104 140.331 130.904C139.431 129.604 138.731 128.104 138.131 126.704C137.831 126.004 137.631 125.204 137.631 124.404C137.531 123.204 138.031 122.204 139.231 121.704C140.431 121.204 141.431 121.604 142.231 122.504C142.731 123.104 143.131 123.804 143.631 124.504C146.131 128.104 148.831 131.804 151.831 135.904Z" fill="black"/>
</svg>
