<svg width="339" height="206" viewBox="0 0 339 206" fill="none" xmlns="http://www.w3.org/2000/svg">
<path fill-rule="evenodd" clip-rule="evenodd" d="M315.181 78.3608C315.194 78.4113 315.206 78.4619 315.22 78.512H323.005C323.001 78.4619 322.998 78.4113 322.994 78.3608H315.181ZM239.258 139.015C241.871 136.442 244.731 134.063 246.116 130.523C243.831 133.354 241.545 136.184 239.258 139.015ZM252.658 109.694C252.658 109.19 252.699 108.681 252.652 108.18C251.894 100.117 245.29 98.0337 239.392 99.6765C237.469 100.212 235.848 101.256 234.3 102.395C232.919 103.41 231.546 104.533 230.479 105.857C227.817 109.164 226.298 113.06 225.483 117.189C224.35 122.934 224.12 128.678 226.295 134.276C227.569 137.553 229.444 140.366 232.534 142.259C233.422 142.803 233.995 142.647 234.681 141.987C239.719 137.139 244.353 131.964 247.78 125.817C250.577 120.799 252.608 115.542 252.658 109.694ZM298.768 81.6859C302.897 80.7314 307.025 79.7775 311.154 78.8231C307.918 79.302 304.699 79.9176 301.503 80.6358C300.566 80.8462 299.695 81.3485 298.791 81.7137C296.869 81.6757 295.412 82.7936 293.907 83.7854C295.527 83.0859 297.148 82.3859 298.768 81.6859ZM231.324 144.943C226.232 141.742 223.076 137.272 221.616 131.775C218.825 121.265 220.438 111.422 227.148 102.732C230.298 98.6502 234.633 96.0985 239.796 95.3373C244.155 94.6949 247.966 96.1481 251.189 99.0913C254.395 102.018 256.463 105.67 256.81 109.98C257.107 113.672 256.78 117.423 255.364 120.934C254.23 123.743 253.066 126.551 251.679 129.239C250.844 130.858 249.605 132.283 248.465 133.729C245.785 137.128 243.056 140.487 240.388 144.154C241.387 143.868 242.428 143.682 243.377 143.277C246.438 141.971 248.887 139.813 251.076 137.372C256.349 131.491 259.869 124.533 263.195 117.457C266.087 111.302 269.03 105.172 272.992 99.6006C280.751 88.6886 291.122 81.7344 304.22 78.8119C312.242 77.0219 320.362 77.3269 328.484 77.3598C331.54 77.3719 334.599 77.1241 337.656 77.0007C337.823 76.9936 337.993 77.0437 338.349 77.0932C337.979 77.4402 337.731 77.6729 337.681 77.7194C338.116 78.073 338.558 78.4331 339 78.7927C338.621 79.2439 338.326 79.863 337.842 80.1063C337.124 80.4669 336.283 80.6743 335.477 80.7471C333.262 80.9469 331.037 81.0212 328.818 81.1846C326.285 81.3718 323.756 81.6161 321.222 81.8007C320.607 81.8457 319.974 81.6818 319.362 81.7415C316.433 82.0268 313.486 82.226 310.588 82.7081C307.986 83.1415 305.459 84.0236 302.859 84.4804C300.878 84.8284 299.059 85.5264 297.248 86.3154C292.892 88.2147 288.74 90.3623 285.146 93.6247C280.104 98.2001 276.091 103.565 272.596 109.298C270.514 112.715 269.174 116.578 267.375 120.178C265.516 123.895 263.536 127.552 261.55 131.204C260.55 133.044 259.581 134.939 258.309 136.585C256.686 138.687 254.824 140.615 252.961 142.516C251.753 143.749 250.471 144.976 249.026 145.897C245.672 148.038 241.977 148.687 238.101 147.608C236.918 147.279 236.075 147.389 235.117 148.229C228.028 154.446 220.119 159.418 211.518 163.244C206.386 165.528 201.238 167.838 195.929 169.64C189.081 171.964 181.979 173.26 174.683 172.956C173.503 172.907 172.306 172.678 171.175 172.338C170.705 172.196 170.387 171.545 170 171.126C170.424 170.842 170.825 170.375 171.279 170.316C172.053 170.216 172.861 170.363 173.653 170.425C174.188 170.467 174.727 170.631 175.252 170.588C180.909 170.12 186.433 168.931 191.807 167.151C205.809 162.513 218.637 155.709 229.95 146.169C230.367 145.818 230.764 145.444 231.324 144.943Z" fill="black"/>
<path d="M73.7566 129.583C73.5338 128.835 73.1724 128.114 73.005 127.282C71.8615 121.958 70.5794 116.662 69.5746 111.311C69.1003 108.954 69.1252 106.569 68.845 104.101C68.8724 103.879 68.8166 103.601 68.8441 103.379C69.2807 97.305 73.6601 95.0532 78.6564 98.3755C81.6541 100.369 84.181 102.89 86.9572 105.216C93.9258 111.171 100.978 117.181 108.002 123.053C113.915 128.066 119.884 132.995 125.881 138.064C125.852 137.565 125.741 137.01 125.629 136.455C124.236 131.326 122.65 126.308 121.395 121.151C120.336 116.964 119.555 112.721 118.773 108.479C118.578 107.508 118.16 106.15 119.38 105.76C120.739 105.343 121.24 106.756 121.712 107.671C123.102 110.637 124.631 113.575 125.689 116.68C128.778 125.219 131.672 133.869 134.567 142.519C134.929 143.6 135.319 144.82 135.403 145.957C135.684 149.146 133.856 151.173 130.611 151.177C130.029 151.15 129.446 151.123 128.919 151.012C122.483 149.855 116.269 148.365 110.192 146.126C109.415 145.849 108.611 145.434 107.916 144.852C107.084 144.299 106.75 143.356 107.054 142.357C107.358 141.358 108.161 140.692 109.187 140.774C110.269 140.773 111.434 140.827 112.488 141.047C116.011 141.709 119.507 142.592 122.975 143.337C123.724 143.475 124.39 143.557 125.36 143.722C116.616 137.187 107.872 131.013 99.6272 124.449C91.2989 117.83 83.3306 110.851 74.974 103.733C74.9194 104.537 74.6984 105.231 74.7546 105.869C75.0907 108.614 75.3714 111.443 75.9294 114.215C77.0454 119.761 78.3833 125.334 79.4992 130.88C79.8336 132.183 80.1126 133.57 80.1697 134.928C80.2843 138.007 77.79 139.591 74.9597 138.429C73.8497 137.931 72.8504 137.267 71.9619 136.436C66.4085 131.062 60.7165 125.716 55.2739 120.175C50.4978 115.438 45.9712 110.507 41.1951 105.77C39.4735 104.024 37.5024 102.474 35.3653 101.173C33.2003 99.733 31.925 100.206 31.3455 102.703C30.8764 104.673 30.4351 106.781 30.6317 108.833C30.9424 113.603 31.3365 118.429 32.285 123.142C35.4922 138.005 39.9746 152.394 45.9263 166.199C46.2044 166.864 46.5933 167.363 46.6496 168.001C46.7058 168.639 46.5126 169.471 46.0971 169.915C45.5155 170.609 44.5446 170.444 43.9338 169.918C43.323 169.391 42.7676 168.782 42.4062 168.061C41.5168 166.509 40.5995 164.818 39.9042 163.155C34.3418 150.209 29.9993 136.874 27.348 122.982C26.4273 118.407 26.1166 113.637 25.7505 108.95C25.6093 106.814 25.9673 104.651 26.4085 102.542C26.5459 101.433 27.0717 100.461 27.5142 99.4347C29.4514 95.7991 32.6672 94.5749 36.635 96.0124C39.9092 97.2289 42.6022 99.5 44.9625 101.91C51.0159 107.977 56.9307 114.072 62.9842 120.138C66.3163 123.435 69.6484 126.731 73.0638 130.083C73.3132 129.889 73.5072 129.778 73.7566 129.583Z" fill="black"/>
<path fill-rule="evenodd" clip-rule="evenodd" d="M165.456 33.9526C165.315 34.6389 164.849 35.2921 165.003 36.0385C165.037 36.1992 164.944 36.3028 164.859 36.4312C164.759 36.5819 164.8 37.9318 164.767 38.1211C164.675 38.6517 165.22 39.1293 164.981 39.5944C164.696 40.1474 164.89 40.5835 164.973 41.1141C165.175 42.4131 165.612 43.5998 166.363 44.8983C166.323 44.4344 166.34 44.132 166.562 43.9029C166.393 43.8052 166.212 43.8781 166.121 43.6764C166.339 42.7324 165.821 41.8473 165.739 40.8942C165.661 40.0053 165.431 39.1251 165.449 38.2106C165.476 36.7919 165.456 35.3721 165.456 33.9526ZM179.091 53.324C179.511 53.5961 179.796 53.9734 180.197 54.2547C181.156 54.9273 182.23 55.3527 183.259 55.8738C183.696 56.095 184.186 56.0001 184.428 55.6095C185.238 54.3011 186.101 53.0199 186.572 51.5305C186.792 50.8334 187.051 50.1491 187.285 49.4557C187.534 48.7193 187.613 47.9406 187.788 47.1871C187.957 46.4586 187.856 45.6778 188.024 44.9124C188.254 43.8599 187.671 42.814 187.823 41.7375C187.411 41.3983 187.684 40.9054 187.545 40.4982C187.24 39.6068 186.968 38.7043 186.695 37.8022C186.225 36.2477 185.444 34.8208 184.544 33.5115C183.848 32.4987 183.071 31.4968 182.071 30.685C181.367 30.1138 180.664 29.5645 179.866 29.1619C178.53 28.4868 177.154 27.9036 175.598 28.0187C175.373 28.0353 175.145 28.037 174.921 28.0183C173.331 27.8866 172.573 28.7925 171.762 29.9245C171.345 30.5064 171.221 31.2499 170.668 31.7387C170.746 31.9081 171.091 32.0307 170.796 32.2759C170.618 32.4238 170.64 32.6048 170.656 32.7833C170.688 33.1296 170.242 32.8595 170.227 33.1267C170.645 33.5313 170.446 33.8312 170.079 34.1021C169.995 34.0338 169.92 33.9716 169.78 33.8573C169.689 34.6339 169.725 35.3505 169.559 36.0683C169.319 37.1067 169.683 38.1845 169.827 39.2225C169.961 40.2 170.16 41.2297 170.64 42.1463C170.656 42.1778 170.506 42.2971 170.429 42.3803C171.155 42.8832 171.38 43.7319 171.747 44.4381C172.423 45.7374 173.075 47.0298 174.115 48.0785C174.275 48.2392 174.195 48.455 174.282 48.5722C174.488 48.8485 174.443 49.1861 174.58 49.4756H175.009C175.276 49.5763 175.144 49.8679 175.341 50.0327C175.507 50.1715 175.75 50.1255 175.894 50.4461C176.111 50.927 176.595 51.3163 177.032 51.6609C177.456 51.9956 177.555 52.6869 178.271 52.7184C178.516 52.7292 178.509 53.133 178.67 53.324H179.091ZM179.996 62.3813C179.664 63.0324 178.956 62.793 178.443 62.9968C178.082 63.1389 177.6 63.4727 177.212 63.2416C176.796 62.9943 176.507 63.3725 176.138 63.2855C175.882 63.225 175.552 63.1542 175.305 63.4479C175.24 63.5261 174.987 63.5423 174.888 63.4798C174.627 63.3157 174.404 63.0983 174.161 63.4851C173.57 63.1148 172.885 63.3542 172.258 63.1873C171.536 62.9955 170.809 62.8025 170.055 62.7806C169.84 62.5664 169.627 62.3535 169.414 62.1406C169.194 62.4045 168.95 62.4438 168.641 62.2761C167.506 61.6606 166.225 61.2994 165.194 60.529C164.416 59.9479 163.532 59.5163 162.851 58.7748C162.134 57.9945 161.241 57.386 160.494 56.6214C159.414 55.5159 158.503 54.2675 157.465 53.128C157.347 52.5295 156.83 52.2002 156.524 51.7289C156.194 51.2198 155.761 50.7936 155.465 50.2502C155.179 49.7233 154.884 49.1848 154.448 48.7462C154.273 48.5702 154.423 48.4128 154.612 48.2492C154.317 47.8689 153.818 47.7057 153.659 47.1292C153.532 46.6682 153.055 46.2838 152.77 45.8161C151.931 44.4352 151.147 43.029 150.439 41.5789C150.179 41.0474 150.036 40.4394 149.694 39.9742C149.346 39.5012 149.307 38.9255 148.981 38.4508C148.649 37.9691 148.415 37.4079 148.206 36.8561C147.578 35.1956 146.785 33.6076 146.156 31.9421C145.493 30.1829 144.783 28.4437 144.199 26.6527C143.995 26.0277 143.708 25.4304 143.517 24.788C143.289 24.0171 143.103 23.231 142.836 22.4738C142.58 21.7448 142.224 21.0569 142.164 20.2603C142.15 20.0893 141.882 19.9083 141.968 19.6776C142.043 19.4754 141.571 19.4278 141.877 19.1366C142.022 18.9991 141.634 18.8583 141.543 18.6789C141.408 18.4159 141.484 18.1222 141.411 17.8344C141.057 16.4348 140.583 15.0692 140.337 13.6331C140.197 12.8229 140.098 11.9734 139.738 11.179C139.53 10.7209 139.781 10.0946 139.474 9.59466C139.62 8.74016 139.108 7.94573 139.246 7.08999C139.284 6.85431 138.933 6.6617 139.221 6.34857C139.329 6.23052 138.935 5.9004 139.009 5.56076C139.073 5.27371 139.023 4.96099 139.023 4.65987C139.023 4.35874 139.033 4.05721 139.021 3.7565C138.988 2.97365 139.226 2.31549 139.671 1.6449C140.069 1.04431 140.484 0.514128 141.067 0.101584C141.276 -0.0462858 141.472 -0.00817929 141.678 0.0618207C141.944 0.471466 141.523 0.72827 141.454 1.06129C141.398 1.32555 141.08 1.47549 141.179 1.85573C141.242 2.09555 140.945 2.36105 141.267 2.66259C141.576 2.9517 140.891 3.19567 141.11 3.58087C141.197 3.5991 141.3 3.62022 141.419 3.64508C141.432 3.65792 141.483 3.6865 141.481 3.71093C141.425 4.44697 141.638 5.15028 141.734 5.86726C141.76 6.05365 141.581 6.10212 141.503 6.24667C141.636 6.29265 141.767 6.33821 141.898 6.38336C142 6.63809 142.025 6.87916 141.773 7.08129C141.797 7.13099 141.807 7.20431 141.848 7.23164C142.171 7.44661 142.114 7.79164 142.203 8.10561C142.676 9.75869 142.852 11.4913 143.541 13.0847C143.544 14.0672 144.083 14.8956 144.335 15.8073C144.493 16.376 144.679 16.9546 144.827 17.5142C144.981 18.0916 145.531 18.5592 145.348 19.2265C145.876 20.0677 145.974 21.0763 146.407 21.9507C146.718 22.5803 146.826 23.2737 147.113 23.9194C147.389 24.5411 147.597 25.2316 147.861 25.867C148.261 26.8287 148.558 27.8332 149.084 28.7544C149.369 29.2531 149.618 29.8176 149.814 30.3664C150.722 32.908 152.016 35.2598 153.255 37.6406C153.625 38.3518 154.152 38.9971 154.293 39.8053C154.366 40.2265 154.797 40.381 154.87 40.8205C154.921 41.1278 155.337 41.3577 155.474 41.6729C155.631 42.0349 155.83 42.3538 156.033 42.6864C156.358 43.2199 156.766 43.7505 156.647 44.412C156.837 44.5719 156.843 44.3631 156.933 44.3474C157.616 45.0064 157.646 45.1083 157.354 45.7917C157.458 45.8907 157.562 45.9905 157.662 46.0854C157.748 46.0125 157.825 45.947 157.889 45.8936C158.604 46.4544 159.064 47.1225 158.894 48.0462C159.149 48.1423 159.195 47.806 159.445 47.9257C159.977 48.6609 160.471 49.4955 161.117 50.1872C161.599 50.7021 162.087 51.2211 162.598 51.7135C163.14 52.2367 163.665 52.7764 164.197 53.309C164.73 53.8417 165.21 54.444 165.807 54.8913C166.884 55.699 167.95 56.5179 169.124 57.2116C170.071 57.7704 171.055 58.2082 172.044 58.6394C172.711 58.9306 173.459 59.0747 174.187 59.1758C174.548 59.2259 174.884 59.2938 175.223 59.4169C175.348 59.462 175.521 59.4637 175.624 59.3067C175.679 59.0329 175.47 58.8457 175.297 58.7794C174.284 58.3921 173.57 57.6089 172.796 56.9188C172.038 56.2437 171.334 55.5051 170.634 54.7683C169.492 53.5663 168.521 52.2408 167.7 50.7919C167.181 49.8766 166.594 49.0042 166.118 48.0574C165.376 46.5857 164.758 45.0739 164.347 43.4829C164.291 43.2613 164.031 43.1317 164.108 42.9068C164.221 42.5816 163.667 42.3505 163.925 42.1273C164.28 41.8208 163.761 41.7305 163.857 41.4836C163.942 41.2612 163.893 40.9994 163.668 40.777C163.525 40.6353 163.75 40.4597 163.88 40.3164C163.388 40.0931 163.475 39.5808 163.451 39.2258C163.374 38.1016 163.309 36.9531 163.461 35.8442C163.57 35.0428 163.64 34.2127 163.882 33.4303C164.119 32.6657 164.459 31.9317 164.669 31.1613C164.815 30.6282 165.184 30.243 165.395 29.765C165.599 29.3011 165.965 28.9229 166.161 28.4988C166.447 27.8771 167.053 27.6435 167.415 27.1282C167.751 26.6511 168.38 26.3847 168.896 26.1043C169.527 25.7609 170.188 25.406 170.888 25.2026C171.561 25.0075 172.209 24.747 172.905 24.5974C173.821 24.4003 174.715 24.1667 175.663 24.1696C176.085 24.1708 176.466 23.8941 176.926 23.9426C177.5 24.0031 178.068 23.9513 178.648 24.1547C179.177 24.3406 179.771 24.2259 180.362 24.3671C182.555 24.8919 182.945 24.858 185.023 25.9573C185.33 26.1196 185.513 26.5264 185.935 26.4725C187.164 27.8096 188.654 28.9084 189.629 30.4783C190.814 32.3877 191.723 34.4198 192.349 36.5815C192.524 37.1858 192.871 37.7388 192.875 38.4007C193.235 37.2124 192.394 36.2034 192.323 34.8075C192.888 35.7954 193.032 36.6428 193.234 37.458C193.501 38.5419 193.701 39.6338 193.742 40.7683C193.761 41.2819 193.89 41.8295 193.931 42.37C193.968 42.8563 193.592 43.2398 193.681 43.7484C193.758 44.1867 193.781 44.6692 193.682 45.0975C193.355 46.5012 193.083 47.9149 192.68 49.3066C192.245 50.8035 191.572 52.1712 190.868 53.5294C190.409 54.4141 189.905 55.3076 189.12 55.9641C188.801 56.2304 188.761 56.7473 188.278 56.8563C188.249 56.8629 188.3 57.0679 188.184 57.145C187.936 57.3094 188.116 57.5529 188.018 57.7505C189.233 58.0802 190.415 58.3051 191.589 58.5636C192.47 58.7579 193.363 58.7579 194.242 58.9347C195.111 59.1099 196.054 59.066 196.943 58.9513C198.247 58.7831 199.57 58.6584 200.833 58.2654C202.066 57.8814 203.204 57.2638 204.371 56.7183C204.737 56.5473 204.841 56.0221 205.331 56.0361C206.018 55.0814 207.216 54.6759 207.826 53.5928C208.191 52.9429 208.87 52.4773 209.326 51.8415C209.991 50.9166 210.579 49.9428 211.238 49.0171C211.773 48.2661 212.155 47.4274 212.625 46.6441C213.316 45.4914 213.779 44.1896 214.236 42.9147C214.495 42.1948 214.825 41.5031 215.006 40.7434C215.262 39.6677 215.692 38.6322 215.611 37.4965C215.577 37.0322 215.301 36.6225 215.365 36.1184C215.403 35.8173 215.547 35.6579 215.728 35.4793C216.049 35.9842 216.153 36.6101 216.726 37.149C216.578 36.7004 217.255 36.5492 216.796 36.0431C216.581 35.8049 216.825 35.2598 216.431 34.9674C216.612 34.8162 216.727 34.7205 216.957 34.5283C217.082 34.6965 217.264 34.8825 217.371 35.1045C217.462 35.2942 217.421 35.5725 217.853 35.4408C217.559 35.0415 217.654 34.6025 217.657 34.1261C218.129 34.1452 218.556 34.0098 218.936 34.296C219.08 34.2057 218.908 33.9841 219.117 33.9207C219.299 34.115 219.562 34.2562 219.681 34.5408C219.78 34.7781 219.902 35.0063 220.017 35.247C220.261 35.0486 219.996 34.7611 220.223 34.5934C220.46 34.9446 220.604 35.3037 220.592 35.749C220.563 36.8404 220.55 37.9343 220.596 39.0245C220.62 39.5861 220.4 40.0902 220.318 40.62C220.142 41.757 219.84 42.8944 219.427 43.9688C219.077 44.8747 218.902 45.8605 218.323 46.674C217.708 48.822 216.182 50.456 215.101 52.3406C214.837 52.8012 214.421 53.2038 214.057 53.5936C212.685 55.0624 211.447 56.6624 209.926 57.9895C207.828 59.8207 205.532 61.3653 202.962 62.4463C201.906 62.8903 200.792 63.2142 199.675 63.5187C198.862 63.7403 198.005 63.7912 197.225 64.14C197.162 64.1682 197.083 64.1607 197.012 64.1698C195.714 64.3309 190.772 64.5712 189.767 64.3719C188.678 64.1561 187.566 64.0973 186.488 63.8438C185.464 63.6024 184.451 63.3091 183.433 63.0424C183.362 63.0241 183.259 63.0713 183.211 63.0353C182.274 62.3366 181.197 62.3051 179.996 62.3813Z" fill="black"/>
</svg>
