<svg width="250" height="199" viewBox="0 0 250 199" fill="none" xmlns="http://www.w3.org/2000/svg">
<path fill-rule="evenodd" clip-rule="evenodd" d="M37.0271 110.289C36.7222 109.987 36.5777 109.843 36.3801 109.647V109.319C35.9912 108.894 35.6109 108.488 35.2419 108.072C34.9304 107.722 34.6504 107.341 34.3215 107.009C33.955 106.639 33.6348 106.229 33.2463 105.872C32.8954 105.55 32.4266 105.306 32.2087 104.868C31.9564 104.359 31.4018 104.204 31.0837 103.776C30.7901 103.381 30.4227 103.04 30.0884 102.676C30.0805 102.684 30.0279 102.737 29.9621 102.803C28.8243 101.85 27.7047 100.865 26.243 100.234C26.2285 100.195 26.1788 100.066 26.1179 99.9063C26.0354 99.9721 25.9601 100.032 25.8826 100.094C25.1238 99.6942 24.326 99.3343 23.5825 98.913C22.6672 98.394 21.6416 98.0954 20.7954 97.4306C20.3704 97.0967 19.8096 96.8822 19.2769 96.7625C18.9505 96.6896 19.0151 96.4783 18.8938 96.3077C18.7857 96.3744 18.6772 96.4406 18.5322 96.5301C17.9308 96.2128 17.3115 95.8864 16.6737 95.5501C16.7938 95.4184 16.8667 95.3389 16.9814 95.213C16.7859 94.9359 16.7959 94.4898 16.0979 94.3746C16.4401 94.2549 16.6517 94.1808 16.9122 94.0896C16.5892 93.7906 16.4624 93.673 16.3025 93.5247C16.1754 93.6021 16.0565 93.675 15.9256 93.755C15.7504 93.6556 15.5491 93.5421 15.3553 93.4323C15.3698 93.3399 15.3586 93.2252 15.3959 93.2053C15.6742 93.0616 15.9625 92.9365 16.2454 92.8064C16.3435 92.2717 15.8196 92.3202 15.593 92.094C15.6464 92.0406 15.6999 91.9876 15.7736 91.9134C15.7065 91.7805 15.6353 91.6388 15.5603 91.4897C15.8333 91.2996 16.0905 91.1202 16.4558 90.8659C17.3907 90.7955 18.475 90.8009 19.5188 90.5979C20.0581 90.4935 20.6554 90.5793 21.1069 90.3651C21.6677 90.0996 22.2289 90.3535 22.7185 90.1589C23.2586 89.9447 23.8232 90.0856 24.3186 89.9257C24.8624 89.7501 25.4262 89.864 25.9215 89.7057C27.1008 89.3288 28.3802 89.3831 29.5089 88.8264C30.0114 88.9631 30.5134 88.5249 31.0158 88.8264C31.536 88.4979 32.1308 88.4151 32.7173 88.2958C33.5453 88.1276 34.3033 87.6919 35.1793 87.6811C35.427 87.6778 35.6722 87.484 36.0728 87.3104C35.0137 87.0039 34.1049 86.7405 32.9932 86.4186C32.9302 86.3404 32.7215 86.0798 32.5111 85.8168C32.1818 85.9121 31.9502 85.9792 31.703 86.0504C30.6857 85.6578 29.4526 85.6238 28.56 84.7784C28.2162 85.2001 27.725 84.8782 27.358 84.9946C26.1535 84.3804 24.8649 84.3153 23.4943 83.9711C23.4798 83.955 23.3535 83.8166 23.2334 83.6849C22.7459 83.4989 22.2298 83.7499 21.7327 83.4343C21.3724 83.2049 20.8252 83.1556 20.3799 83.2032C19.8365 83.2612 19.3092 83.1146 18.912 82.9087C18.4187 82.6531 17.9689 82.8246 17.4652 82.6917C17.3786 82.5972 17.2519 82.4589 17.0763 82.2671C15.9567 82.3711 14.8238 82.1524 13.6504 82.0629C13.5402 81.9183 13.4305 81.7738 13.2884 81.5874H12.1303C12.274 81.4192 12.3407 81.3418 12.4795 81.1802C11.9 81.2362 11.5686 80.928 11.2601 80.4964C11.3201 80.3912 11.3893 80.2698 11.4477 80.1667C10.8794 79.5831 10.2958 78.9837 9.76314 78.437C9.84888 78.1371 9.91432 77.9097 9.9984 77.616C10.08 77.5767 10.2333 77.503 10.3861 77.4292V77.1646C10.268 77.1248 10.138 77.0809 9.94 77.0142C9.89071 76.3473 10.2859 75.9054 10.734 75.4995C11.2588 75.4104 11.2588 75.4104 11.6163 74.756C11.3727 74.8927 11.2804 74.9444 11.1366 75.0248C11.1105 74.9229 11.0803 74.8073 11.0393 74.6466C11.2924 74.6085 11.5003 74.5775 11.7579 74.5385C11.6693 74.4267 11.6109 74.3521 11.5674 74.297C11.9799 73.7271 12.3933 73.1559 12.8568 72.516H13.3596C13.2474 72.3838 13.182 72.3064 13.0929 72.2016C13.2246 72.1569 13.3489 72.115 13.5129 72.0595V71.5811C13.6595 71.4345 13.766 71.3285 13.8728 71.2216C14.1185 71.4262 14.5169 71.4664 14.577 71.8764C14.9378 71.3732 14.4734 71.1553 14.1777 70.7925C14.4014 70.773 14.5757 70.7577 14.7588 70.742C15.0396 70.2776 15.4137 69.8779 15.4323 69.2396C15.4476 68.707 15.9762 68.4444 16.5059 68.2278C16.4198 68.1114 16.3676 68.0409 16.2632 67.9009C16.4653 67.8612 16.6447 67.8264 16.8733 67.7821C16.8659 67.7286 16.8547 67.6495 16.8224 67.4143C17.0332 67.1177 17.4196 66.7433 17.5957 66.2872C17.8463 65.6378 18.5562 65.4207 18.8018 64.7514C19.0172 64.1644 19.4198 63.6421 19.8676 63.1496C20.4781 62.4782 20.9288 61.6618 21.4854 60.8529H20.8658C20.8153 60.9606 20.7424 61.1155 20.6425 61.3267C20.4748 61.2215 20.3282 61.1292 20.1525 61.0194C19.8655 61.1872 19.542 61.3359 19.2682 61.5488C19.0388 61.7269 18.6353 61.7472 18.6366 62.1651C18.2087 62.0524 17.9784 62.3697 17.7274 62.6153C17.652 62.5395 17.599 62.4865 17.5576 62.4451C16.6356 63.3418 15.518 63.9188 14.35 64.4188C14.065 64.7178 13.7801 65.0164 13.4976 65.3122H13.1231C12.6244 65.6688 12.1908 65.9791 11.6975 66.3324C11.567 66.1029 11.4742 65.9401 11.3545 65.7301C11.031 65.9144 10.727 66.088 10.4453 66.2487C10.5174 66.5424 10.5791 66.7959 10.6408 67.0469C9.96775 67.4954 9.35018 67.9072 8.5603 68.4336C8.66012 67.9958 8.8871 67.8802 9.04657 67.6827C8.60089 67.4089 8.50065 67.8918 8.2571 68.026C8.14651 67.9461 8.03716 67.8657 7.80231 67.6943C7.74763 67.9055 7.69627 68.1031 7.64491 68.3007C7.58734 68.2447 7.52976 68.1888 7.47219 68.1333C7.5571 68.2779 7.64201 68.4224 7.73521 68.5819C7.43533 68.731 7.18763 68.854 6.94325 68.975C6.83473 68.8801 6.75231 68.808 6.66367 68.7302C6.58953 68.7985 6.51041 68.8706 6.40852 68.9642C6.46609 69.2715 6.52657 69.5983 6.58249 69.8962C5.67414 70.4309 4.8097 70.9391 3.94527 71.4478C3.91462 71.4167 3.88355 71.386 3.85331 71.3554C3.91627 71.268 3.97882 71.1806 4.13414 70.9644C3.56379 71.0692 3.09325 71.1557 2.54651 71.2564C2.41852 70.8231 2.30047 70.4226 2.12941 69.8411C2.11325 69.8282 1.93722 69.6899 1.71396 69.5143C2.8497 68.7778 3.74314 67.855 4.6842 67.0104C5.98686 65.8415 7.47343 64.9489 8.83491 63.8753C10.2523 62.7574 11.8188 61.8271 13.317 60.8102C14.1702 60.2316 15.0061 59.626 15.8705 59.064C17.0841 58.2753 18.2886 57.4664 19.5528 56.7676C20.1099 56.4599 20.5233 55.9678 21.1649 55.7516C21.7157 55.566 22.1718 55.0955 22.6659 54.7455C23.928 53.8521 25.2149 52.9967 26.3751 51.9612C27.1302 51.2865 27.9747 50.7108 28.8967 50H30.2458C30.2562 50.3272 30.3833 50.6797 30.0238 51.038C30.3208 51.0711 30.5983 51.1018 30.8605 51.1308C31.4006 52.0561 31.4938 53.0527 31.3496 54.2145C31.2436 54.2903 31.0315 54.4419 30.6434 54.7202C30.5854 54.7434 30.2976 54.859 29.9517 54.9973C30.0793 55.3515 30.175 55.6174 30.2653 55.868C29.9654 56.2735 29.6924 56.7005 29.3602 57.0746C29.0773 57.3935 29.096 57.9912 28.3889 57.9129C28.555 58.0798 28.6085 58.1328 28.7075 58.2322C28.1839 58.4336 28.3152 59.2591 27.5986 59.269C27.575 59.467 27.5539 59.6447 27.5291 59.8551C27.4359 59.8766 27.3335 59.9002 27.2201 59.9263C26.7093 61.2692 25.7443 62.3295 24.8479 63.4661C24.8479 63.5489 24.8902 63.6877 24.8405 63.7705C24.6392 64.1048 24.4756 64.5857 24.1749 64.7079C23.6861 64.9059 23.7122 65.6365 23.066 65.5876C23.0503 65.861 23.0358 66.1145 23.0205 66.3862C22.895 66.4322 22.7645 66.4798 22.605 66.5382C22.598 66.6704 22.5905 66.8153 22.5781 67.039C22.3101 67.2933 21.9986 67.5891 21.63 67.9391C21.5103 67.6856 21.4399 67.536 21.3425 67.3285C21.1528 67.6122 20.9818 67.8682 20.8107 68.1246C20.8807 68.2373 20.9507 68.3491 21.063 68.5276C20.8832 68.6349 20.6889 68.7041 20.5663 68.8387C20.4591 68.9563 20.4325 69.1477 20.3712 69.3038C20.4371 69.3995 20.517 69.5151 20.6525 69.7118C20.4649 69.8224 20.3041 69.9164 20.0341 70.0755C19.9641 70.0556 19.7338 69.9906 19.472 69.9165V70.3741C19.0872 70.5796 18.8167 70.72 18.7111 71.2166C18.5318 72.0608 18.0045 72.8005 17.6031 73.573C17.5418 73.6915 17.3207 73.7267 17.1749 73.7992C17.2515 73.8915 17.3149 73.9682 17.3086 73.9603C16.9922 74.3302 16.7453 74.7175 16.4057 74.9888C16.0607 75.265 15.6237 75.427 15.1266 75.6921C15.026 75.9389 15.2637 76.0036 15.8759 75.8789C15.4808 76.1957 15.3482 76.3022 15.1871 76.431C15.0454 76.3602 14.8996 76.2873 14.6221 76.1485C14.7439 76.4612 14.8255 76.6712 14.9179 76.9082C14.8624 76.9819 14.799 77.0676 14.695 77.2068C14.8007 77.3054 14.9344 77.5245 15.0396 77.5117C15.5541 77.4487 15.9422 77.6951 16.3195 77.8977C17.1463 77.6807 17.8711 78.1371 18.6386 78.2233C19.4836 78.3173 20.3377 78.4564 21.1446 78.7124C21.9175 78.9568 22.7011 79.2281 23.4856 79.3002C24.3186 79.3764 25.0803 79.6763 25.8896 79.8092C26.7147 79.9447 27.5278 80.1994 28.3193 80.479C29.0819 80.7491 29.8859 80.8282 30.6525 81.1123C31.4317 81.401 32.2596 81.6388 33.0769 81.7908C33.887 81.9415 34.6028 82.3139 35.3864 82.5078C36.1672 82.7008 36.9401 82.9315 37.7039 83.1841C38.4967 83.4463 39.2721 83.7611 40.0595 84.0407C40.8162 84.3095 41.5788 84.563 42.403 84.8451C42.6022 85.0443 42.8657 85.3073 43.1254 85.567C43.0612 85.6391 42.9887 85.7215 42.9228 85.7953C42.888 86.2786 43.3035 86.2741 43.5288 86.4008C43.6183 86.8863 43.7024 87.3407 43.7931 87.8319C43.7546 87.8733 43.6792 87.9549 43.6092 88.0303C44.1369 88.6209 43.7351 89.1246 43.4008 89.5666C43.0628 90.0127 42.6155 90.3755 42.1885 90.8025C41.1004 90.955 40.156 91.8372 38.9146 91.5034C38.8802 91.6703 38.8591 91.7734 38.8239 91.9462C38.1562 92.0559 37.45 92.1715 36.6506 92.3024C36.6427 92.3285 36.6042 92.4569 36.5756 92.5521C35.9485 92.7261 35.3434 92.9104 34.7291 93.0562C34.4876 93.1134 34.1683 93.1825 33.9844 93.0749C33.5167 92.8015 33.1266 92.8036 32.6606 93.0749C32.4464 93.1995 32.1308 93.1482 31.8703 93.3308H32.7563C32.6921 93.4667 32.6631 93.5657 32.6432 93.5636C32.0517 93.5098 31.5062 93.7347 30.9752 93.912C30.5279 94.0615 30.025 94.1406 29.6999 93.9579C29.2782 93.721 28.9146 93.8995 28.3591 93.7127C28.5264 93.9451 28.5749 94.0126 28.6242 94.0809C27.9544 94.5113 27.6749 94.631 27.1488 94.3713C26.728 94.1634 26.3776 94.3253 25.9849 94.4202C26.2848 94.4541 26.5847 94.4881 27.1004 94.5465C26.3697 94.7018 25.8565 94.8108 25.1325 94.9644C26.9181 95.7696 28.2568 96.893 29.7011 97.8568C31.1724 98.8385 31.8566 99.4622 32.7629 100.615C32.9278 100.824 33.2239 100.926 33.407 101.126C33.7234 101.472 33.9711 101.884 34.3004 102.216C34.6028 102.521 35.0249 102.713 35.3073 103.032C36.0541 103.876 36.6572 104.841 37.4645 105.641C37.5436 105.719 37.4972 105.925 37.5101 106.088C37.6699 106.187 37.9015 106.255 38.0092 106.41C38.5356 107.165 39.0836 107.913 39.5156 108.722C39.859 109.365 40.2541 109.979 40.552 110.661C40.8464 111.335 40.8928 112.03 41.0825 112.698C41.2785 113.39 41.0892 114.134 40.7533 114.856C39.9563 114.169 39.2054 115.039 38.401 114.991C38.7796 115.02 39.1586 115.05 39.5376 115.079C39.5338 115.139 39.5297 115.2 39.526 115.26H38.7783C38.5522 115.26 38.326 115.256 38.1003 115.261C37.8472 115.267 37.5676 115.191 37.3982 115.474C37.2582 115.141 36.9861 115.532 36.8449 115.385C36.5909 115.12 36.4704 115.68 36.2045 115.454C36.0575 115.329 35.816 115.292 35.6109 115.267C35.3575 115.237 35.0978 115.26 34.8646 115.26C34.7987 115.072 34.7527 114.941 34.6802 114.734C34.6115 114.933 34.568 115.059 34.5079 115.235C34.3882 115.245 34.247 115.257 34.0159 115.277C33.7988 115.061 33.5416 114.804 33.3105 114.573C33.1104 114.584 32.9659 114.592 32.8337 114.599C32.7753 114.759 32.7277 114.889 32.6622 115.069C32.5707 114.878 32.5007 114.732 32.4303 114.586H32.1826C32.1143 114.731 32.0409 114.885 31.9606 115.057C31.3107 114.845 30.7051 114.543 29.9952 114.56C29.6738 114.567 29.3466 114.332 28.9866 114.194C28.9924 114.19 28.9394 114.231 28.8582 114.293C28.2895 114.141 27.7001 113.984 26.974 113.789C27.2188 113.59 27.3824 113.457 27.5344 113.333C27.1741 113.283 26.9355 113.311 26.5648 113.453C26.5362 113.431 26.5051 113.413 26.4786 113.388C26.424 113.336 26.3718 113.282 26.3096 113.22C26.2591 113.275 26.2102 113.331 26.1585 113.384C26.1332 113.409 26.1025 113.43 26.0719 113.454C25.7745 113.357 25.475 113.26 25.0815 113.131V112.138C25.0306 112.113 24.9796 112.089 24.9283 112.064C24.8355 112.206 24.7431 112.349 24.611 112.551C24.6557 112.633 24.7353 112.777 24.886 113.051C24.3633 112.922 23.9367 112.817 23.5225 112.714C23.4922 112.578 23.4699 112.475 23.4463 112.368C22.8767 112.754 22.458 112.442 22.0322 112.112C21.8963 112.008 21.7311 111.927 21.567 111.876C21.1992 111.76 20.8235 111.67 20.3746 111.549C20.3708 111.536 20.3414 111.436 20.2801 111.229C20.0705 111.243 19.8191 111.26 19.4194 111.287C19.4836 111.341 19.419 111.25 19.3337 111.221C18.6428 110.978 17.9241 110.818 17.2523 110.519C17.1889 110.49 17.1053 110.513 17.0353 110.496C16.5796 110.381 16.375 109.795 15.8403 109.841C15.3681 109.882 15.0732 109.508 14.6731 109.38C14.2427 109.243 13.8252 109.065 13.4052 108.898C13.2756 108.846 13.1621 108.745 13.0299 108.716C12.8866 108.683 12.7305 108.708 12.5114 108.708C12.4062 108.569 12.2707 108.391 12.1709 108.259H11.4046C10.9519 107.784 10.5017 107.296 9.75195 107.349C9.68527 107.354 9.58959 107.342 9.55148 107.299C8.90698 106.569 7.89178 106.569 7.12302 106.049C6.3816 105.549 5.47698 105.296 4.68793 104.856C3.64249 104.274 2.63929 103.617 1.62118 102.986C1.52757 102.928 1.43479 102.843 1.38343 102.747C0.90213 101.857 0.430355 100.962 0 100.152C0.107692 99.5969 0.196331 99.1404 0.310237 98.5535C0.491657 98.4421 0.789882 98.2594 1.07941 98.0817C1.68414 98.3153 2.28142 98.5125 2.84846 98.7755C3.4184 99.0398 3.9842 99.3314 4.50609 99.6789C5.64929 100.439 6.93331 100.924 8.11959 101.593C8.82166 101.99 9.64343 102.177 10.2254 102.784C11.5533 103.135 12.728 103.834 13.9677 104.387C14.5037 104.626 15.0098 104.948 15.5922 105.103C16.129 105.245 16.643 105.472 17.1678 105.659C18.808 106.246 20.445 106.839 22.0893 107.413C22.9455 107.712 23.8095 107.993 24.6789 108.252C25.5546 108.512 26.4728 108.685 27.3182 108.979C28.7998 109.493 30.358 109.58 31.8446 110.034C32.6295 110.275 33.5043 110.243 34.341 110.281C35.1562 110.319 35.9746 110.289 37.0271 110.289" fill="black"/>
<path fill-rule="evenodd" clip-rule="evenodd" d="M53 21.33C53.1895 19.0759 53.4751 16.6508 53.5544 14.2189C53.5824 13.3687 53.323 12.5664 54.2484 12.0854C54.4386 11.9867 54.7169 11.8293 54.8577 11.8999C57.2446 13.0963 59.9091 13.1271 62.4131 13.8151C64.09 14.276 65.6519 15.0227 66.7134 16.5134C66.9251 16.8111 66.9105 17.2764 67 17.6642C66.6228 17.7414 66.2227 17.9437 65.8727 17.8758C63.3283 17.3815 60.7882 16.8582 58.2595 16.2867C57.4661 16.1075 57.3224 16.4199 57.2286 17.1299C57.0118 18.7679 56.6677 20.3878 56.432 22.0236C56.3309 22.7228 56.3691 23.4427 56.3512 24.1534C56.3498 24.2128 56.4411 24.2811 56.4305 24.3327C56.3221 24.8656 56.2712 25.8134 56.0711 25.8479C55.4939 25.9481 54.7766 25.8252 54.256 25.5298C52.6475 24.6169 53.1437 22.9466 53 21.33" fill="black"/>
<path fill-rule="evenodd" clip-rule="evenodd" d="M86.9279 29.8633C86.9687 29.9589 87.0103 30.0548 87.0512 30.1504L89.776 28.6417C89.7189 28.5355 89.6613 28.4298 89.6041 28.324C88.7123 28.837 87.8197 29.3503 86.9279 29.8633M108.213 27.8694C108.251 27.9413 108.29 28.0132 108.328 28.0851C109.838 27.4355 111.349 26.7855 112.859 26.1356C112.813 26.0257 112.766 25.9158 112.72 25.8063C111.217 26.4939 109.715 27.1818 108.213 27.8694M93.7384 18.8902C93.5279 17.7552 93.3393 16.6152 93.0998 15.4862C92.952 14.7888 92.5106 14.6048 91.8099 14.7587C89.6153 15.2419 87.9909 17.2023 87.7963 19.5526C87.584 22.1144 89.0472 23.6943 90.8517 25.0732C90.9927 25.1812 91.5155 24.9941 91.6986 24.7928C93.2045 23.1335 93.6396 21.0967 93.7384 18.8902M100.885 27.685C106.917 27.9037 111.989 25.5876 116.535 21.7595C121.711 17.4014 125.725 12.0773 129.241 6.32484C130.306 4.58275 131.327 2.81205 132.433 1.09742C132.729 0.637156 133.214 0.168231 133.706 0.0161882C134.046 -0.0888118 134.547 0.343984 134.977 0.537048C134.844 0.792962 134.724 1.05678 134.577 1.30404C134.183 1.97017 133.719 2.6013 133.387 3.29678C132.303 5.56011 131.304 7.86484 130.198 10.1161C129.453 11.6336 128.639 13.1243 127.746 14.5562C127.181 15.4606 126.369 16.2027 125.747 17.0751C124.761 18.4574 123.96 19.9948 122.862 21.2732C121.153 23.2637 119.411 25.2772 117.414 26.9511C112.999 30.6517 107.904 32.4601 102.08 32.0943C99.3701 31.9241 96.6835 31.862 94.122 30.7993C93.842 30.683 93.3185 30.867 93.0448 31.0864C90.2899 33.2993 87.1239 34.4615 83.6632 34.6794C81.0734 34.8427 78.4198 35.0508 75.8828 34.6557C73.7546 34.3245 71.675 33.308 69.7198 32.3031C67.9819 31.4093 66.3686 30.211 64.8348 28.9755C62.6502 27.215 61.0952 24.9132 60.066 22.2894C59.9182 21.9126 60.1726 21.2157 60.4677 20.8604C60.7956 20.4652 61.2668 20.6549 61.8033 20.8984C63.4826 21.6609 64.1635 23.2509 65.0776 24.6253C66.809 27.2296 69.297 28.767 72.144 29.5852C77.0015 30.9814 81.8342 30.3943 86.5239 28.6759C89.0572 27.7471 89.0323 27.6417 87.1863 25.798C84.7566 23.3717 83.4122 20.4754 83.5982 16.9855C83.8143 12.935 87.1347 10.0875 91.1338 10.3852C92.3892 10.4789 93.2439 11.2576 94.0648 12.0592C95.9294 13.8803 96.9712 16.1531 97.3347 18.7314C97.7112 21.3986 97.7806 24.045 96.5286 26.5526C96.2264 27.1581 96.5171 27.4227 97.1483 27.4524C98.3947 27.5115 99.6393 27.6056 100.885 27.685" fill="black"/>
<path d="M206.612 83.2339C207.67 83.7161 208.464 83.9946 209.224 84.3724C216.731 87.4499 224.139 90.4927 231.646 93.5702C234.094 94.5397 234.495 96.576 232.801 98.5467C232.259 99.1374 231.752 99.6288 231.146 100.085C220.291 109.104 208.498 116.343 195.668 121.77C184.85 126.229 174.384 131.593 164.082 137.125C158.31 140.231 152.473 143.203 146.538 146.14C141.004 148.883 135.629 152.129 130.518 155.578C125.173 159.056 119.535 162.098 113.897 165.139C112.387 165.948 110.584 166.32 108.851 166.493C107.386 166.537 105.593 166.243 104.272 165.557C99.9829 163.161 99.0462 159.153 102.003 155.172C103.906 152.605 106.301 150.546 108.566 148.218C109.411 147.399 110.355 146.614 111.1 145.761C123.259 132.07 135.353 118.245 147.511 104.555C154.591 96.4436 161.602 88.5311 168.777 80.7875C181.566 67.2065 196.95 57.9919 214.835 52.7761C217.676 51.9879 220.482 51.2989 223.423 50.5455C221.447 49.1839 220.484 49.0692 219.763 50.4891C218.67 50.1062 217.578 49.7233 216.486 49.3404C215.493 48.9923 214.599 48.679 214.217 47.5416C214.058 47.04 213.334 46.5629 212.802 46.4882C210.647 45.9558 208.358 45.4879 206.203 44.9555C205.473 44.8111 204.743 44.6667 204.048 44.4231C203.254 44.1446 201.853 44.3227 201.973 43.0266C202.063 41.4971 203.493 41.5524 204.556 41.7019C207.58 41.9815 210.604 42.261 213.559 42.7392C221.792 44.064 230.328 45.1606 238.575 47.7171C240.894 48.4184 243.143 49.3183 245.393 50.2183C248.104 51.3915 248.709 53.1647 247.734 55.9452C247.107 57.7327 246.089 59.0482 244.608 60.0904C241.951 61.9464 239.392 63.8373 236.705 65.4599C227.57 70.8437 218.37 76.0934 209.235 81.4772C208.395 81.9634 207.655 82.4845 206.612 83.2339Z" fill="#55BBDA"/>
<path d="M178.138 88.3787C185.81 90.5984 193.482 92.8182 201.049 95.0012C203.594 95.776 206.102 96.6552 208.647 97.43C210.215 97.9795 211.568 98.806 211.891 100.562C212.178 102.423 211.315 103.881 209.793 104.873C208.517 105.834 207.069 106.618 205.658 107.296C173.245 124.1 141.14 141.364 109.955 160.358C108.046 161.45 106.138 162.541 104.125 163.596C102.782 164.416 101.339 164.849 99.8867 163.636C98.5388 162.459 98.597 160.954 99.1099 159.491C100.497 155.869 101.988 152.285 103.584 148.736C106.807 141.886 110.171 134.968 113.393 128.117C117.014 120.467 120.389 112.848 124.114 105.235C127.948 97.3079 132.06 89.5955 136.067 81.8463C137.872 78.3715 139.573 74.8601 141.451 71.1762C140.301 70.7732 139.256 70.4069 138.315 70.0771C135.143 69.0826 131.83 68.1559 128.695 67.0568C124.828 65.7013 124.269 63.2759 126.978 60.2353C128.688 58.3702 130.503 56.5418 132.422 54.75C134.979 52.4776 137.745 50.2786 140.369 48.1474C148.139 41.7171 156.013 35.3235 163.679 28.8567C166.445 26.6576 169.011 26.0316 172.183 27.0262C177.273 28.5757 182.4 30.0207 187.49 31.5702C199.065 35.0409 210.745 38.5483 222.283 42.1235C225.351 43.0814 228.382 44.1439 231.308 45.1697C232.353 45.5361 233.294 45.8658 234.266 46.4412C237.636 48.2093 238.225 50.8804 235.59 53.712C234.413 55.0599 232.996 56.0888 231.543 57.2223C221.943 64.1848 211.66 70.0859 201.309 75.8459C194.491 79.5588 187.434 82.9527 180.444 86.4878C179.597 86.895 178.75 87.3023 177.971 87.8507C178.039 87.9919 178.107 88.133 178.138 88.3787Z" fill="#FBE8DE"/>
<path d="M141.66 71.2495C140.406 70.8099 139.465 70.4801 138.42 70.1138C135.285 69.0147 131.971 68.088 128.836 66.9889C125.178 65.7067 124.515 63.2447 127.083 60.2719C128.652 58.4747 130.43 56.7508 132.312 55.0635C135.01 52.7233 137.776 50.5242 140.437 48.2885C148.348 41.7904 156.223 35.3968 163.924 28.8254C166.445 26.6576 169.116 26.0683 172.288 27.0628C177.273 28.5757 182.295 29.984 187.281 31.4969C198.961 35.0043 210.604 38.6162 222.388 42.1602C225.351 43.0814 228.277 44.1073 231.204 45.1331C232.04 45.4261 232.876 45.7192 233.675 46.1168C237.919 48.0736 238.57 51.236 235.02 54.3337C232.108 56.9508 228.814 59.3169 225.489 61.4373C212.261 69.7099 198.898 77.7002 184.82 84.3835C182.562 85.4696 180.408 86.5923 177.867 87.8141C179.006 88.9175 180.302 88.9024 181.347 89.2687C189.959 91.8182 198.676 94.4043 207.288 96.9537C208.02 97.2102 208.788 97.3621 209.588 97.7597C212.3 99.0624 212.957 101.875 210.787 104.048C209.579 105.15 208.094 106.038 206.646 106.821C195.275 112.811 183.905 118.8 172.534 124.79C152.474 135.479 132.687 146.733 113.17 158.551C110.483 160.191 107.691 161.794 104.936 163.293C104.335 163.669 103.629 164.009 102.996 164.139C100.78 164.77 98.9775 163.552 99.0831 161.241C99.2092 159.877 99.5809 158.482 100.162 157.16C103.934 148.742 107.811 140.36 111.651 132.083C115.926 122.902 120.059 113.789 124.543 104.681C128.304 96.9632 132.379 89.3552 136.313 81.8151C138.118 78.3403 139.818 74.8288 141.66 71.2495ZM106.769 155.721C106.941 155.898 107.114 156.076 107.323 156.149C138.231 136.941 170.472 119.959 202.655 102.136C200.46 101.367 198.825 100.676 197.116 100.195C188.885 97.8962 180.722 95.739 172.491 93.4406C171.619 93.252 170.783 92.9589 169.983 92.5613C166.89 91.0075 166.515 88.0596 169.108 85.6827C170.28 84.685 171.728 83.9017 173.176 83.1184C181.509 78.7634 190.046 74.8318 198.243 70.1945C208.208 64.5337 217.76 58.3761 227.484 52.3962C228.227 51.9523 228.938 51.2628 230.177 50.4062C227.564 49.4903 225.615 48.6897 223.592 48.0981C206.3 42.8581 189.008 37.618 171.752 32.2735C170.252 31.8651 169.405 32.2724 168.412 33.0977C160.642 39.5279 152.873 45.9582 145.103 52.3884C142.122 54.8644 139.142 57.3403 136.162 59.8163C135.487 60.4014 134.776 61.091 133.851 62.0574C135.105 62.4971 136.045 62.8268 136.881 63.1199C139.949 64.0778 143.053 64.9312 145.943 66.0615C148.624 67.1186 149.26 68.9848 147.994 71.5922C146.006 75.5896 143.877 79.6549 141.785 83.6157C137.416 92.0597 132.98 100.363 128.821 108.88C122.454 122.022 116.333 135.132 110.144 148.102C109.019 150.641 107.894 153.181 106.769 155.721Z" fill="black"/>
</svg>
