<svg width="169" height="96" viewBox="0 0 169 96" fill="none" xmlns="http://www.w3.org/2000/svg">
<path fill-rule="evenodd" clip-rule="evenodd" d="M145.181 1.36076C145.194 1.41134 145.206 1.46192 145.22 1.51199H153.005C153.001 1.46192 152.998 1.41134 152.994 1.36076H145.181ZM69.2583 62.0148C71.8715 59.4418 74.731 57.063 76.1165 53.5235C73.8306 56.3544 71.5447 59.1843 69.2583 62.0148ZM82.658 32.6943C82.658 32.1895 82.699 31.6807 82.6519 31.1804C81.8942 23.1165 75.29 21.0337 69.3919 22.6765C67.4687 23.2116 65.8485 24.2561 64.2996 25.3952C62.9192 26.4098 61.5458 27.5326 60.479 28.8573C57.8168 32.1642 56.2983 36.0599 55.4834 40.1892C54.3498 45.934 54.1196 51.6778 56.2952 57.2765C57.5694 60.553 59.4441 63.3662 62.5337 65.2589C63.4225 65.8032 63.9946 65.6474 64.681 64.9868C69.7192 60.1393 74.3526 54.9645 77.7797 48.8165C80.5775 43.799 82.6079 38.5423 82.658 32.6943ZM128.768 4.68586C132.897 3.73142 137.025 2.77749 141.154 1.82305C137.918 2.30204 134.699 2.9176 131.503 3.63583C130.566 3.84624 129.695 4.34849 128.791 4.71368C126.869 4.67574 125.412 5.79355 123.907 6.78542C125.527 6.0859 127.148 5.38588 128.768 4.68586ZM61.3243 67.9432C56.232 64.7415 53.0756 60.2723 51.6157 54.7753C48.825 44.2654 50.4376 34.4216 57.1476 25.7315C60.2984 21.6502 64.633 19.0985 69.796 18.3373C74.1548 17.6949 77.9663 19.1481 81.189 22.0913C84.395 25.0183 86.4634 28.6702 86.8104 32.9796C87.1073 36.6724 86.7801 40.4228 85.3637 43.9341C84.2301 46.7428 83.0657 49.5509 81.6792 52.2387C80.8441 53.8578 79.6053 55.2826 78.4651 56.7292C75.7852 60.1276 73.0557 63.4866 70.3879 67.1542C71.3869 66.8684 72.4284 66.6817 73.3769 66.2771C76.4377 64.9706 78.887 62.8129 81.0757 60.3719C86.3486 54.4905 89.8687 47.5328 93.1946 40.4567C96.087 34.3022 99.0304 28.172 102.992 22.6006C110.751 11.6886 121.122 4.73441 134.22 1.81193C142.242 0.0219158 150.362 0.326911 158.484 0.359787C161.54 0.371926 164.599 0.124087 167.656 0.000672375C167.823 -0.00640876 167.993 0.043665 168.349 0.093233C167.979 0.440209 167.731 0.672875 167.681 0.719408C168.116 1.07296 168.558 1.43309 169 1.79271C168.621 2.24388 168.326 2.86297 167.842 3.10626C167.124 3.46689 166.283 3.67427 165.477 3.7471C163.262 3.94689 161.037 4.02124 158.818 4.18461C156.285 4.37176 153.756 4.61606 151.222 4.80067C150.607 4.84569 149.974 4.68181 149.362 4.7415C146.433 5.02676 143.486 5.22605 140.588 5.70807C137.986 6.14154 135.459 7.02365 132.859 7.48038C130.878 7.82837 129.059 8.52636 127.248 9.3154C122.892 11.2147 118.74 13.3623 115.146 16.6247C110.104 21.2001 106.091 26.5646 102.596 32.2983C100.514 35.7154 99.1741 39.5782 97.3748 43.1779C95.5164 46.895 93.5355 50.5524 91.5501 54.2043C90.5496 56.0443 89.5814 57.9391 88.3092 59.5854C86.686 61.687 84.824 63.6146 82.9615 65.5159C81.7525 66.7485 80.4707 67.9756 79.0256 68.8971C75.6719 71.0376 71.9767 71.6871 68.101 70.6082C66.9183 70.2795 66.0746 70.3892 65.1165 71.2293C58.0277 77.4461 50.1194 82.4175 41.5182 86.2444C36.3865 88.5281 31.238 90.838 25.9288 92.6402C19.0807 94.9643 11.9788 96.2602 4.68305 95.9562C3.50343 95.9071 2.30612 95.678 1.17506 95.3376C0.704633 95.196 0.386966 94.545 0 94.1262C0.424398 93.8425 0.825022 93.3746 1.27876 93.3159C2.05269 93.2158 2.86102 93.363 3.65266 93.4252C4.18783 93.4672 4.72706 93.6305 5.25161 93.5875C10.9094 93.1202 16.4327 91.9305 21.8072 90.1507C35.8088 85.513 48.6368 78.7091 59.9504 69.1692C60.3667 68.8182 60.7643 68.4439 61.3243 67.9432Z" fill="black"/>
</svg>
