<svg width="82" height="35" viewBox="0 0 82 35" fill="none" xmlns="http://www.w3.org/2000/svg">
<path fill-rule="evenodd" clip-rule="evenodd" d="M0 21.3301C0.189514 19.076 0.475057 16.6508 0.554355 14.219C0.582363 13.3688 0.32301 12.5665 1.24839 12.0855C1.43863 11.9868 1.7169 11.8294 1.85767 11.8999C4.2446 13.0964 6.90906 13.1272 9.41312 13.8152C11.09 14.2761 12.6519 15.0228 13.7134 16.5135C13.9251 16.8112 13.9105 17.2765 14 17.6643C13.6228 17.7415 13.2227 17.9438 12.8727 17.8759C10.3283 17.3816 7.78825 16.8583 5.25946 16.2868C4.46612 16.1075 4.32244 16.42 4.22859 17.1299C4.0118 18.768 3.66769 20.3879 3.43198 22.0237C3.33086 22.7229 3.36905 23.4428 3.35123 24.1535C3.34977 24.2129 3.44107 24.2812 3.43052 24.3327C3.32213 24.8657 3.2712 25.8135 3.07114 25.848C2.49387 25.9482 1.77655 25.8253 1.25603 25.5299C-0.352473 24.617 0.143681 22.9467 0 21.3301Z" fill="black"/>
<path fill-rule="evenodd" clip-rule="evenodd" d="M33.9276 29.8633C33.9685 29.9589 34.0101 30.0548 34.0509 30.1504L36.7758 28.6417C36.7186 28.5355 36.6611 28.4298 36.6039 28.324C35.7121 28.837 34.8195 29.3503 33.9276 29.8633ZM55.2128 27.8694C55.251 27.9413 55.2893 28.0132 55.3275 28.0851C56.8379 27.4355 58.3483 26.7855 59.8591 26.1356C59.8127 26.0257 59.7659 25.9158 59.7195 25.8063C58.2173 26.4939 56.715 27.1818 55.2128 27.8694ZM40.7382 18.8902C40.5276 17.7552 40.339 16.6152 40.0996 15.4862C39.9518 14.7888 39.5103 14.6048 38.8097 14.7587C36.615 15.2419 34.9906 17.2023 34.7961 19.5526C34.5837 22.1144 36.047 23.6943 37.8514 25.0732C37.9925 25.1812 38.5153 24.9941 38.6983 24.7928C40.2043 23.1335 40.6394 21.0967 40.7382 18.8902ZM47.8843 27.685C53.9166 27.9037 58.9884 25.5876 63.5348 21.7595C68.7106 17.4014 72.7249 12.0773 76.241 6.32484C77.3059 4.58275 78.3269 2.81205 79.4326 1.09742C79.7289 0.637156 80.2134 0.168231 80.7057 0.0161882C81.0455 -0.0888118 81.5471 0.343984 81.9763 0.537048C81.8441 0.792962 81.7234 1.05678 81.5772 1.30404C81.1825 1.97017 80.7191 2.6013 80.3864 3.29678C79.303 5.56011 78.3039 7.86484 77.1978 10.1161C76.4523 11.6336 75.6388 13.1243 74.7455 14.5562C74.1811 15.4606 73.3691 16.2027 72.7468 17.0751C71.7603 18.4574 70.9602 19.9948 69.8619 21.2732C68.1529 23.2637 66.4108 25.2772 64.4137 26.9511C59.9987 30.6517 54.9035 32.4601 49.0799 32.0943C46.3699 31.9241 43.6832 31.862 41.1217 30.7993C40.8418 30.683 40.3182 30.867 40.0446 31.0864C37.2897 33.2993 34.1237 34.4615 30.6629 34.6794C28.0732 34.8427 25.4196 35.0508 22.8826 34.6557C20.7544 34.3245 18.6748 33.308 16.7196 32.3031C14.9816 31.4093 13.3684 30.211 11.8346 28.9755C9.64992 27.215 8.09497 24.9132 7.06577 22.2894C6.91799 21.9126 7.17233 21.2157 7.4675 20.8604C7.79535 20.4652 8.26651 20.6549 8.80302 20.8984C10.4824 21.6609 11.1633 23.2509 12.0774 24.6253C13.8087 27.2296 16.2967 28.767 19.1437 29.5852C24.0013 30.9814 28.834 30.3943 33.5237 28.6759C36.057 27.7471 36.0321 27.6417 34.1861 25.798C31.7564 23.3717 30.4119 20.4754 30.5979 16.9855C30.814 12.935 34.1345 10.0875 38.1336 10.3852C39.3889 10.4789 40.2436 11.2576 41.0645 12.0592C42.9291 13.8803 43.971 16.1531 44.3345 18.7314C44.7109 21.3986 44.7804 24.045 43.5284 26.5526C43.2262 27.1581 43.5169 27.4227 44.1481 27.4524C45.3945 27.5115 46.639 27.6056 47.8843 27.685Z" fill="black"/>
</svg>
