<svg width="159" height="185" viewBox="0 0 159 185" fill="none" xmlns="http://www.w3.org/2000/svg">
<path d="M115.612 69.234C116.67 69.7162 117.464 69.9947 118.224 70.3725C125.731 73.45 133.139 76.4927 140.646 79.5703C143.094 80.5398 143.495 82.5761 141.801 84.5468C141.259 85.1375 140.753 85.6289 140.147 86.0855C129.291 95.1036 117.499 102.343 104.669 107.77C93.8506 112.23 83.3846 117.593 73.0824 123.125C67.3104 126.231 61.4739 129.203 55.5381 132.14C50.0046 134.884 44.6298 138.129 39.5181 141.578C34.173 145.056 28.5351 148.098 22.8972 151.139C21.3871 151.948 19.5843 152.32 17.851 152.493C16.386 152.537 14.5934 152.243 13.2728 151.557C8.98328 149.161 8.0466 145.153 11.0033 141.172C12.9065 138.605 15.3011 136.546 17.5667 134.218C18.4114 133.399 19.3553 132.614 20.1006 131.761C32.259 118.07 44.3529 104.245 56.5113 90.5549C63.5918 82.4437 70.6027 74.5312 77.7773 66.7876C90.5664 53.2066 105.951 43.992 123.836 38.7762C126.677 37.988 129.483 37.299 132.423 36.5456C130.447 35.184 129.484 35.0693 128.763 36.4892C127.671 36.1063 126.578 35.7234 125.486 35.3405C124.493 34.9924 123.599 34.6791 123.217 33.5417C123.059 33.0401 122.334 32.563 121.803 32.4882C119.648 31.9559 117.359 31.488 115.204 30.9556C114.474 30.8112 113.744 30.6668 113.049 30.4232C112.254 30.1447 110.854 30.3228 110.973 29.0267C111.064 27.4972 112.494 27.5525 113.556 27.702C116.581 27.9816 119.605 28.2611 122.559 28.7392C130.792 30.0641 139.328 31.1607 147.576 33.7172C149.895 34.4185 152.144 35.3184 154.393 36.2184C157.104 37.3916 157.709 39.1648 156.734 41.9453C156.108 43.7328 155.089 45.0483 153.609 46.0905C150.951 47.9465 148.393 49.8373 145.705 51.46C136.57 56.8438 127.37 62.0935 118.235 67.4773C117.396 67.9635 116.656 68.4846 115.612 69.234Z" fill="#55BBDA"/>
<path d="M87.1382 74.3788C94.8098 76.5985 102.481 78.8182 110.048 81.0013C112.593 81.7761 115.102 82.6553 117.647 83.4301C119.214 83.9796 120.568 84.8061 120.891 86.5624C121.177 88.4232 120.314 89.881 118.793 90.8733C117.517 91.8344 116.069 92.6177 114.658 93.2965C82.2448 110.1 50.1401 127.364 18.9545 146.358C17.0462 147.45 15.138 148.541 13.1253 149.596C11.7816 150.416 10.3389 150.849 8.88648 149.636C7.53858 148.459 7.59679 146.954 8.10969 145.491C9.49647 141.869 10.9877 138.285 12.5835 134.737C15.8064 127.886 19.1704 120.968 22.3932 114.117C26.0137 106.467 29.3884 98.8483 33.1134 91.2349C36.9482 83.308 41.06 75.5956 45.0673 67.8464C46.8721 64.3716 48.5724 60.8602 50.4505 57.1763C49.3008 56.7733 48.2557 56.407 47.3151 56.0772C44.143 55.0827 40.8298 54.156 37.6944 53.0569C33.8273 51.7014 33.2692 49.276 35.9781 46.2354C37.688 44.3703 39.5025 42.5419 41.4216 40.7501C43.9784 38.4777 46.7443 36.2787 49.3691 34.1475C57.1389 27.7172 65.0132 21.3236 72.6784 14.8568C75.4443 12.6577 78.0109 12.0317 81.1829 13.0263C86.2729 14.5758 91.3995 16.0208 96.4895 17.5703C108.065 21.041 119.744 24.5484 131.283 28.1236C134.351 29.0815 137.382 30.144 140.308 31.1698C141.353 31.5361 142.294 31.8659 143.266 32.4412C146.636 34.2094 147.225 36.8805 144.59 39.7121C143.413 41.06 141.996 42.0889 140.543 43.2224C130.943 50.1849 120.66 56.086 110.308 61.846C103.491 65.5589 96.4336 68.9528 89.444 72.4879C88.5971 72.8951 87.7502 73.3024 86.9712 73.8508C87.0391 73.992 87.1069 74.1331 87.1382 74.3788Z" fill="#FBE8DE"/>
<path d="M50.6599 57.2495C49.4058 56.8099 48.4651 56.4802 47.42 56.1138C44.2846 55.0147 40.9713 54.0881 37.8359 52.989C34.1779 51.7067 33.5153 49.2447 36.083 46.272C37.6518 44.4748 39.4297 42.7509 41.312 41.0636C44.0101 38.7233 46.776 36.5243 49.4374 34.2885C57.3483 27.7904 65.2226 21.3968 72.9245 14.8255C75.4447 12.6576 78.1158 12.0683 81.2879 13.0629C86.2733 14.5757 91.2954 15.9841 96.2808 17.4969C107.961 21.0043 119.604 24.6162 131.388 28.1602C134.351 29.0815 137.277 30.1073 140.204 31.1331C141.04 31.4262 141.876 31.7193 142.675 32.1169C146.919 34.0736 147.57 37.236 144.02 40.3337C141.108 42.9508 137.814 45.3169 134.489 47.4373C121.261 55.7099 107.898 63.7002 93.8201 70.3836C91.5617 71.4696 89.4078 72.5923 86.8671 73.8141C88.0059 74.9175 89.3021 74.9024 90.3473 75.2688C98.9595 77.8182 107.676 80.4043 116.288 82.9538C117.02 83.2102 117.788 83.3621 118.588 83.7597C121.3 85.0625 121.957 87.8747 119.787 90.0479C118.579 91.1501 117.094 92.0379 115.646 92.8212C104.275 98.8107 92.9047 104.8 81.534 110.79C61.4745 121.479 41.6865 132.733 22.1701 144.551C19.4828 146.191 16.6911 147.794 13.9359 149.293C13.3347 149.669 12.6289 150.009 11.9965 150.139C9.78009 150.77 7.9775 149.552 8.08313 147.242C8.20922 145.877 8.58097 144.482 9.16175 143.16C12.9341 134.742 16.811 126.36 20.6513 118.083C24.9258 108.902 29.0591 99.7889 33.5426 90.6811C37.3042 82.9632 41.3793 75.3552 45.3133 67.8151C47.1182 64.3403 48.8185 60.8289 50.6599 57.2495ZM15.7688 141.721C15.9412 141.898 16.1136 142.076 16.3227 142.15C47.2314 122.941 79.4718 105.959 111.655 88.1363C109.46 87.367 107.825 86.6763 106.116 86.1946C97.8851 83.8962 89.7222 81.739 81.4914 79.4406C80.6187 79.252 79.7826 78.9589 78.9831 78.5613C75.8897 77.0076 75.5148 74.0596 78.1083 71.6827C79.2795 70.685 80.7277 69.9017 82.1758 69.1184C90.5091 64.7634 99.046 60.8319 107.243 56.1946C117.208 50.5337 126.76 44.3761 136.484 38.3963C137.227 37.9524 137.938 37.2628 139.177 36.4062C136.564 35.4903 134.615 34.6897 132.592 34.0982C115.3 28.8581 98.0079 23.6181 80.7523 18.2735C79.2524 17.8651 78.4055 18.2724 77.4121 19.0977C69.6423 25.528 61.8725 31.9582 54.1028 38.3884C51.1224 40.8644 48.1421 43.3404 45.1618 45.8164C44.4873 46.4014 43.7761 47.091 42.8506 48.0575C44.1047 48.4971 45.0454 48.8268 45.8815 49.1199C48.949 50.0778 52.0532 50.9312 54.943 52.0616C57.6237 53.1186 58.2605 54.9848 56.9944 57.5923C55.0064 61.5897 52.8772 65.6549 50.7847 69.6157C46.4165 78.0598 41.9804 86.3627 37.8212 94.8801C31.4542 108.022 25.3328 121.132 19.1436 134.102C18.0187 136.642 16.8938 139.181 15.7688 141.721Z" fill="black"/>
</svg>
