<svg width="24" height="17" viewBox="0 0 24 17" fill="none" xmlns="http://www.w3.org/2000/svg">
<path d="M1.01044 7.78689L1.0104 7.78685L1.0139 7.78335L7.82517 0.967174L7.83614 0.956198L7.84838 0.946664C8.02773 0.806948 8.25191 0.737617 8.47879 0.751819C8.70567 0.76602 8.91946 0.862763 9.08004 1.02372C9.24061 1.18466 9.33693 1.39872 9.35107 1.62566C9.36521 1.85259 9.2962 2.07696 9.1569 2.25663L9.14733 2.26897L9.13631 2.28002L3.91701 7.51153H22.3178C22.5652 7.51153 22.8024 7.61006 22.9772 7.78525C23.1519 7.96042 23.25 8.19788 23.25 8.44536C23.25 8.69284 23.1519 8.93029 22.9772 9.10546C22.8024 9.28065 22.5652 9.37918 22.3178 9.37918H3.92801L9.12614 14.5895C9.22459 14.6691 9.30586 14.7679 9.36497 14.88C9.4267 14.9971 9.46287 15.1259 9.4711 15.258C9.47933 15.3901 9.45944 15.5225 9.41273 15.6463C9.36601 15.7701 9.29354 15.8826 9.20008 15.9763C9.10662 16.07 8.99431 16.1427 8.87059 16.1896C8.74687 16.2365 8.61459 16.2564 8.48255 16.2482C8.3505 16.2399 8.22175 16.2036 8.10483 16.1417C7.99287 16.0823 7.89423 16.0008 7.81486 15.9022L1.01376 9.08516L1.01373 9.08519L1.01044 9.08177C0.843287 8.90774 0.75 8.67567 0.75 8.43433C0.75 8.19299 0.843287 7.96092 1.01044 7.78689Z" fill="#D2D2D2" stroke="#BBBBBB" stroke-width="0.5"/>
</svg>
