<svg width="24" height="17" viewBox="0 0 24 17" fill="none" xmlns="http://www.w3.org/2000/svg">
<path d="M22.9896 7.78689L22.9896 7.78685L22.9861 7.78335L16.1748 0.967174L16.1639 0.956198L16.1516 0.946664C15.9723 0.806948 15.7481 0.737617 15.5212 0.751819C15.2943 0.76602 15.0805 0.862763 14.92 1.02372C14.7594 1.18466 14.6631 1.39872 14.6489 1.62566C14.6348 1.85259 14.7038 2.07696 14.8431 2.25663L14.8527 2.26897L14.8637 2.28002L20.083 7.51153H1.68223C1.4348 7.51153 1.19762 7.61006 1.02284 7.78525C0.848075 7.96042 0.75 8.19788 0.75 8.44536C0.75 8.69284 0.848075 8.93029 1.02284 9.10546C1.19762 9.28065 1.4348 9.37918 1.68223 9.37918H20.072L14.8739 14.5895C14.7754 14.6691 14.6941 14.7679 14.635 14.88C14.5733 14.9971 14.5371 15.1259 14.5289 15.258C14.5207 15.3901 14.5406 15.5225 14.5873 15.6463C14.634 15.7701 14.7065 15.8826 14.7999 15.9763C14.8934 16.07 15.0057 16.1427 15.1294 16.1896C15.2531 16.2365 15.3854 16.2564 15.5175 16.2482C15.6495 16.2399 15.7783 16.2036 15.8952 16.1417C16.0071 16.0823 16.1058 16.0008 16.1851 15.9022L22.9862 9.08516L22.9863 9.08519L22.9896 9.08177C23.1567 8.90774 23.25 8.67567 23.25 8.43433C23.25 8.19299 23.1567 7.96092 22.9896 7.78689Z" fill="#FD2F09" stroke="#FD2F09" stroke-width="0.5"/>
</svg>
