<svg width="14" height="11" viewBox="0 0 14 11" fill="none" xmlns="http://www.w3.org/2000/svg">
<path d="M2.08765 0C2.08728 0 2.08687 0 2.0865 0C1.95742 0 1.83601 0.0530841 1.74433 0.149557C1.65164 0.247096 1.60059 0.37697 1.60059 0.515231V8.24103C1.60059 8.52434 1.81992 8.75539 2.08958 8.75612C3.22638 8.75898 5.13096 9.00893 6.44487 10.4595V2.37419C6.44487 2.27816 6.42162 2.18794 6.37773 2.11328C5.29934 0.281176 3.22702 0.00281176 2.08765 0Z" fill="#979797"/>
<path d="M12.0474 8.24108V0.515231C12.0474 0.37697 11.9963 0.247096 11.9036 0.149557C11.8119 0.0530841 11.6904 0 11.5615 0C11.5611 0 11.5607 0 11.5603 0C10.421 0.00286024 8.34865 0.281225 7.27022 2.11333C7.22633 2.18799 7.20312 2.27821 7.20312 2.37424V10.4595C8.51703 9.00893 10.4216 8.75898 11.5584 8.75612C11.828 8.75539 12.0474 8.52434 12.0474 8.24108Z" fill="#979797"/>
<path d="M13.1595 1.78223H12.8054V8.24157C12.8054 8.96492 12.2468 9.55476 11.56 9.55655C10.5958 9.55898 9.00588 9.75789 7.87988 10.8822C9.8273 10.3791 11.8802 10.7061 13.0502 10.9874C13.1963 11.0225 13.3472 10.9862 13.4643 10.8878C13.5809 10.7897 13.6478 10.6429 13.6478 10.4854V2.29736C13.6479 2.01332 13.4288 1.78223 13.1595 1.78223Z" fill="#979797"/>
<path d="M0.84242 8.24157V1.78223H0.488302C0.219106 1.78223 0 2.01332 0 2.29736V10.4853C0 10.6428 0.0669083 10.7895 0.183538 10.8877C0.30049 10.986 0.451309 11.0225 0.597625 10.9873C1.7676 10.7059 3.82058 10.379 5.7679 10.882C4.64195 9.75779 3.05205 9.55893 2.08781 9.55651C1.40112 9.55476 0.84242 8.96492 0.84242 8.24157Z" fill="#979797"/>
</svg>
