<svg width="14" height="14" viewBox="0 0 14 14" fill="none" xmlns="http://www.w3.org/2000/svg">
<path d="M7 0C3.14027 0 0 3.14027 0 7C0 10.8597 3.14027 14 7 14C10.8597 14 14 10.8597 14 7C14 3.14027 10.8598 0 7 0ZM7 12.7826C3.81165 12.7826 1.21737 10.1884 1.21737 7C1.21737 3.81165 3.81165 1.2174 7 1.2174C10.1884 1.2174 12.7826 3.81165 12.7826 7C12.7826 10.1884 10.1884 12.7826 7 12.7826Z" fill="#797979"/>
<path d="M10.2595 3.74196C10.1712 3.65308 10.0379 3.62752 9.92408 3.67745L5.66321 5.50354C5.5914 5.53398 5.53416 5.59179 5.50312 5.66363L3.67703 9.9245C3.62772 10.0389 3.65329 10.1716 3.74154 10.2599C3.79997 10.3171 3.8779 10.3482 3.95702 10.3482C3.99719 10.3482 4.03796 10.3396 4.07694 10.3238L8.33781 8.49773C8.40962 8.46668 8.46686 8.40947 8.4979 8.33763L10.324 4.07676C10.3727 3.96232 10.3471 3.82961 10.2595 3.74196ZM7.00051 7.60902C6.66511 7.60902 6.39182 7.3357 6.39182 7.00033C6.39182 6.66493 6.66514 6.39165 7.00051 6.39165C7.33591 6.39165 7.6092 6.66496 7.6092 7.00033C7.60922 7.3357 7.33591 7.60902 7.00051 7.60902Z" fill="#797979"/>
</svg>
