<svg width="14" height="14" viewBox="0 0 14 14" fill="none" xmlns="http://www.w3.org/2000/svg">
<path d="M3.50001 0C3.22386 0 3 0.223857 3 0.500009V1.5H3.99999V0.500009C3.99999 0.223857 3.77613 0 3.50001 0Z" fill="#979797"/>
<path d="M10.5 0C10.2239 0 10 0.223857 10 0.500009V1.5H11V0.500009C11 0.223857 10.7762 0 10.5 0Z" fill="#979797"/>
<path d="M12.5 1.5H11V3.50001C11 3.77616 10.7761 4.00002 10.5 4.00002C10.2238 4.00002 9.99998 3.77616 9.99998 3.50001V1.5H3.99999V3.50001C3.99999 3.77616 3.77613 4.00002 3.49998 4.00002C3.22383 4.00002 2.99997 3.77616 2.99997 3.50001V1.5H1.5C0.671572 1.5 0 2.17157 0 3V12.5C0 13.3284 0.671572 14 1.5 14H12.5C13.3284 14 14 13.3284 14 12.5V3C14 2.17157 13.3284 1.5 12.5 1.5ZM13 12.5C13 12.7762 12.7761 13 12.5 13H1.5C1.22385 13 0.99999 12.7762 0.99999 12.5V6H13V12.5Z" fill="#979797"/>
<path d="M4 7H3.00001C2.72386 7 2.5 7.22386 2.5 7.50001C2.5 7.77616 2.72386 8.00002 3.00001 8.00002H4C4.27615 8.00002 4.50001 7.77616 4.50001 7.50001C4.50001 7.22386 4.27615 7 4 7Z" fill="#979797"/>
<path d="M7.5 7H6.50001C6.22386 7 6 7.22386 6 7.50001C6 7.77616 6.22386 8.00002 6.50001 8.00002H7.5C7.77615 8.00002 8.00001 7.77616 8.00001 7.50001C8.00001 7.22386 7.77615 7 7.5 7Z" fill="#979797"/>
<path d="M11 7H10C9.72386 7 9.5 7.22386 9.5 7.50001C9.5 7.77616 9.72386 8.00002 10 8.00002H11C11.2762 8.00002 11.5 7.77616 11.5 7.50001C11.5 7.22386 11.2761 7 11 7Z" fill="#979797"/>
<path d="M4 9H3.00001C2.72386 9 2.5 9.22386 2.5 9.50001C2.5 9.77616 2.72386 10 3.00001 10H4C4.27615 10 4.50001 9.77616 4.50001 9.50001C4.50001 9.22386 4.27615 9 4 9Z" fill="#979797"/>
<path d="M7.5 9H6.50001C6.22386 9 6 9.22386 6 9.50001C6 9.77616 6.22386 10 6.50001 10H7.5C7.77615 10 8.00001 9.77616 8.00001 9.50001C8.00001 9.22386 7.77615 9 7.5 9Z" fill="#979797"/>
<path d="M11 9H10C9.72386 9 9.5 9.22386 9.5 9.50001C9.5 9.77616 9.72386 10 10 10H11C11.2762 10 11.5 9.77616 11.5 9.50001C11.5 9.22386 11.2761 9 11 9Z" fill="#979797"/>
<path d="M4 11H3.00001C2.72386 11 2.5 11.2239 2.5 11.5C2.5 11.7762 2.72386 12 3.00001 12H4C4.27615 12 4.50001 11.7761 4.50001 11.5C4.50001 11.2238 4.27615 11 4 11Z" fill="#979797"/>
<path d="M7.5 11H6.50001C6.22386 11 6 11.2239 6 11.5C6 11.7762 6.22386 12 6.50001 12H7.5C7.77615 12 8.00001 11.7762 8.00001 11.5C8.00001 11.2239 7.77615 11 7.5 11Z" fill="#979797"/>
<path d="M11 11H10C9.72386 11 9.5 11.2239 9.5 11.5C9.5 11.7762 9.72386 12 10 12H11C11.2762 12 11.5 11.7762 11.5 11.5C11.5 11.2239 11.2761 11 11 11Z" fill="#979797"/>
</svg>
