<svg width="14" height="15" viewBox="0 0 14 15" fill="none" xmlns="http://www.w3.org/2000/svg">
<path d="M14 3.32143C14 5.44984 13.0721 6.99615 13.0331 7.06065C12.9545 7.1891 12.8184 7.25956 12.6781 7.25956C12.6044 7.25956 12.5301 7.24005 12.4629 7.1994C12.2667 7.08016 12.2038 6.82488 12.3225 6.62868C12.3312 6.61459 13.1686 5.20703 13.1686 3.32143C13.1686 2.24611 12.4694 1.46564 11.5057 1.46564C10.5887 1.46564 9.8429 2.21142 9.8429 3.12902C9.8429 3.5198 10.0321 4.51273 10.1047 4.86232C10.1518 5.08725 10.0071 5.3073 9.78219 5.35445C9.55727 5.40052 9.33722 5.25689 9.29061 5.0325C9.26188 4.89538 9.01039 3.67643 9.01039 3.12902C9.01039 1.75344 10.1296 0.634216 11.5057 0.634216C12.9274 0.634216 14 1.78921 14 3.32143ZM11.5762 3.97561C11.7415 5.35716 11.9811 8.04925 11.7057 8.3235L5.66466 14.3651C5.29339 14.7369 4.69015 14.7369 4.31834 14.3646L0.278856 10.3256C-0.0929521 9.95436 -0.0929521 9.35112 0.278856 8.97931L6.32047 2.93824C6.41641 2.8423 7.46137 2.83797 8.63642 2.89921C8.62991 2.97672 8.61311 3.04989 8.61311 3.12902C8.61311 3.43037 8.67978 3.89757 8.74969 4.3084C8.62666 4.49105 8.55458 4.71056 8.55458 4.94741C8.55458 5.57829 9.06622 6.08994 9.6971 6.08994C10.328 6.08994 10.8396 5.57829 10.8396 4.94741C10.8396 4.5588 10.6451 4.21626 10.3486 4.0103C10.2879 3.64879 10.2391 3.29975 10.2391 3.12902C10.2391 3.09216 10.2467 3.05802 10.2499 3.0217C10.3946 3.03688 10.5372 3.0526 10.6721 3.0694C11.4705 3.1675 11.4786 3.16587 11.5762 3.97561ZM8.35621 8.49694C8.26244 8.23624 8.10635 7.92351 7.7676 7.56362L8.22613 7.10455L7.71557 6.59453L7.22073 7.08992C6.55841 6.63627 5.8755 6.67312 5.41209 7.13653C4.90695 7.64167 5.02619 8.28285 5.39691 9.02809C5.65165 9.54407 5.69826 9.84108 5.50043 10.0389C5.29719 10.2422 4.96928 10.1538 4.67172 9.8568C4.33352 9.5186 4.13515 9.10072 4.03651 8.76197L3.27013 9.21616C3.35901 9.52293 3.59857 9.96032 3.93678 10.3202L3.43706 10.8205L3.94708 11.331L4.48419 10.7945C5.19258 11.2942 5.90693 11.227 6.37034 10.7636C6.84458 10.2882 6.88632 9.75707 6.47982 8.91319C6.19798 8.30832 6.13023 8.01131 6.29717 7.84492C6.44351 7.69858 6.70366 7.65684 7.04241 7.99559C7.41801 8.37119 7.54267 8.73596 7.61042 8.92891L8.35621 8.49694Z" fill="#979797"/>
</svg>
