<svg width="18" height="19" viewBox="0 0 18 19" fill="none" xmlns="http://www.w3.org/2000/svg">
<path d="M9.00084 0.322266C6.55657 0.322266 6.24982 0.332953 5.28981 0.376641C4.33167 0.420516 3.67766 0.572203 3.10541 0.794766C2.51346 1.02464 2.01133 1.33214 1.51108 1.83258C1.01045 2.33283 0.702945 2.83495 0.472317 3.4267C0.24919 3.99914 0.0973134 4.65333 0.054188 5.61108C0.01125 6.57108 0 6.87802 0 9.32227C0 11.7665 0.0108753 12.0723 0.0543757 13.0323C0.0984387 13.9905 0.250128 14.6445 0.472505 15.2167C0.70257 15.8086 1.01007 16.3108 1.51052 16.811C2.01058 17.3116 2.51271 17.6199 3.10428 17.8498C3.67691 18.0723 4.33111 18.224 5.28905 18.2679C6.24906 18.3116 6.55563 18.3223 8.99972 18.3223C11.4442 18.3223 11.75 18.3116 12.71 18.2679C13.6681 18.224 14.3229 18.0723 14.8955 17.8498C15.4873 17.6199 15.9887 17.3116 16.4887 16.811C16.9894 16.3108 17.2969 15.8086 17.5275 15.2169C17.7487 14.6445 17.9006 13.9903 17.9456 13.0325C17.9888 12.0725 18 11.7665 18 9.32227C18 6.87802 17.9888 6.57127 17.9456 5.61127C17.9006 4.65314 17.7487 3.99914 17.5275 3.42689C17.2969 2.83495 16.9894 2.33283 16.4887 1.83258C15.9881 1.33195 15.4875 1.02445 14.895 0.794766C14.3212 0.572203 13.6668 0.420516 12.7087 0.376641C11.7487 0.332953 11.4431 0.322266 8.99803 0.322266H9.00084ZM8.19346 1.94414C8.43309 1.94377 8.70047 1.94414 9.00084 1.94414C11.4039 1.94414 11.6887 1.95277 12.6376 1.99589C13.5151 2.03602 13.9914 2.18264 14.3086 2.30583C14.7287 2.46895 15.0281 2.66395 15.3429 2.97895C15.6579 3.29395 15.8529 3.59395 16.0164 4.01395C16.1396 4.33083 16.2864 4.80708 16.3264 5.68458C16.3695 6.63333 16.3789 6.91833 16.3789 9.3202C16.3789 11.7221 16.3695 12.0071 16.3264 12.9558C16.2862 13.8333 16.1396 14.3096 16.0164 14.6265C15.8533 15.0465 15.6579 15.3455 15.3429 15.6603C15.0279 15.9753 14.7288 16.1703 14.3086 16.3335C13.9918 16.4572 13.5151 16.6035 12.6376 16.6436C11.6889 16.6867 11.4039 16.6961 9.00084 16.6961C6.59763 16.6961 6.31282 16.6867 5.36406 16.6436C4.48655 16.6031 4.01029 16.4565 3.69285 16.3333C3.27285 16.1701 2.97284 15.9751 2.65784 15.6601C2.34284 15.3451 2.14783 15.0459 1.98433 14.6257C1.86114 14.3088 1.71433 13.8326 1.67439 12.9551C1.63127 12.0063 1.62264 11.7213 1.62264 9.31795C1.62264 6.91458 1.63127 6.63108 1.67439 5.68233C1.71452 4.80483 1.86114 4.32858 1.98433 4.01133C2.14746 3.59133 2.34284 3.29133 2.65784 2.97633C2.97284 2.66133 3.27285 2.46633 3.69285 2.30283C4.0101 2.17908 4.48655 2.03283 5.36406 1.99252C6.19431 1.95502 6.51607 1.94377 8.19346 1.94189V1.94414ZM13.805 3.43852C13.2088 3.43852 12.725 3.9217 12.725 4.51814C12.725 5.11439 13.2088 5.59814 13.805 5.59814C14.4013 5.59814 14.885 5.11439 14.885 4.51814C14.885 3.92189 14.4013 3.43814 13.805 3.43814V3.43852ZM9.00084 4.70039C6.44838 4.70039 4.37892 6.76983 4.37892 9.32227C4.37892 11.8747 6.44838 13.9432 9.00084 13.9432C11.5533 13.9432 13.622 11.8747 13.622 9.32227C13.622 6.76983 11.5531 4.70039 9.00066 4.70039H9.00084ZM9.00084 6.32227C10.6576 6.32227 12.0009 7.66533 12.0009 9.32227C12.0009 10.979 10.6576 12.3223 9.00084 12.3223C7.34389 12.3223 6.00081 10.979 6.00081 9.32227C6.00081 7.66533 7.34389 6.32227 9.00084 6.32227Z" fill="#133142"/>
</svg>
