<svg width="10" height="14" viewBox="0 0 10 14" fill="none" xmlns="http://www.w3.org/2000/svg">
<path d="M8.72407 2.33479C7.89662 0.906822 6.42689 0.0344184 4.79252 0.00107849C4.72275 -0.000359496 4.65253 -0.000359496 4.58273 0.00107849C2.94838 0.0344184 1.47866 0.906822 0.651178 2.33479C-0.194623 3.7944 -0.217764 5.54767 0.589264 7.02483L3.9702 13.2131C3.97172 13.2159 3.97324 13.2186 3.97481 13.2213C4.12356 13.4799 4.39004 13.6342 4.68768 13.6342C4.98529 13.6342 5.25176 13.4799 5.40049 13.2213C5.40206 13.2186 5.40358 13.2159 5.4051 13.2131L8.78603 7.02483C9.59301 5.54767 9.56987 3.7944 8.72407 2.33479ZM4.68762 6.17802C3.63041 6.17802 2.77031 5.31791 2.77031 4.2607C2.77031 3.20349 3.63041 2.34339 4.68762 2.34339C5.74483 2.34339 6.60493 3.20349 6.60493 4.2607C6.60493 5.31791 5.74486 6.17802 4.68762 6.17802Z" fill="#979797"/>
</svg>
