<svg width="14" height="14" viewBox="0 0 14 14" fill="none" xmlns="http://www.w3.org/2000/svg">
<path d="M8.75 7.5833C8.42743 7.5833 8.1667 7.84467 8.1667 8.1666V10.5C8.1667 10.8214 7.90533 11.0833 7.5833 11.0833H5.8333V2.3333C5.8333 1.83513 5.51596 1.39005 5.03883 1.22438L4.86612 1.1666H7.5833C7.90533 1.1666 8.1667 1.4285 8.1667 1.75V3.5C8.1667 3.82193 8.42743 4.0833 8.75 4.0833C9.07257 4.0833 9.3333 3.82193 9.3333 3.5V1.75C9.3333 0.785172 8.54813 0 7.5833 0H1.3125C1.29028 0 1.2717 0.00993349 1.25012 0.0128174C1.22203 0.0104675 1.19522 0 1.1667 0C0.52327 0 0 0.523163 0 1.1666V11.6666C0 12.1648 0.317337 12.6098 0.794464 12.7755L4.30504 13.9457C4.42403 13.9825 4.54237 14 4.6667 14C5.31013 14 5.8333 13.4767 5.8333 12.8333V12.25H7.5833C8.54813 12.25 9.3333 11.4648 9.3333 10.5V8.1666C9.3333 7.84467 9.07257 7.5833 8.75 7.5833Z" fill="#979797"/>
<path d="M13.8288 5.42137L11.4954 3.08807C11.3287 2.92123 11.0778 2.87103 10.8597 2.96139C10.6421 3.05186 10.4997 3.26473 10.4997 3.50047V5.25047H8.16641C7.84438 5.25047 7.58301 5.51173 7.58301 5.83376C7.58301 6.1558 7.84438 6.41706 8.16641 6.41706H10.4997V8.16706C10.4997 8.4028 10.6421 8.61567 10.8597 8.70614C11.0778 8.7965 11.3287 8.7463 11.4954 8.57957L13.8288 6.24616C14.0569 6.01812 14.0569 5.64941 13.8288 5.42137Z" fill="#979797"/>
</svg>
