<svg width="22" height="20" viewBox="0 0 22 20" fill="none" xmlns="http://www.w3.org/2000/svg">
<path d="M19.871 0H2.12903C0.958064 0 0 0.958064 0 2.12903C0 3.3 0.958064 4.25806 2.12903 4.25806H19.871C21.0419 4.25806 22 3.3 22 2.12903C22 0.958064 21.0419 0 19.871 0Z" fill="#C4C4C4"/>
<path d="M19.871 7.80664H2.12903C0.958064 7.80664 0 8.76471 0 9.93567C0 11.1066 0.958064 12.0647 2.12903 12.0647H19.871C21.0419 12.0647 22 11.1066 22 9.93567C22 8.76471 21.0419 7.80664 19.871 7.80664Z" fill="#C4C4C4"/>
<path d="M19.871 15.6133H2.12903C0.958064 15.6133 0 16.5713 0 17.7423C0 18.9133 0.958064 19.8713 2.12903 19.8713H19.871C21.0419 19.8713 22 18.9133 22 17.7423C22 16.5713 21.0419 15.6133 19.871 15.6133Z" fill="#C4C4C4"/>
</svg>
