<svg width="23" height="7" viewBox="0 0 23 7" fill="none" xmlns="http://www.w3.org/2000/svg">
<path d="M22.1579 5.40793C23.2807 4.28518 23.2807 2.46482 22.1579 1.34207C21.0352 0.219312 19.2148 0.219312 18.0921 1.34207C16.9693 2.46482 16.9693 4.28518 18.0921 5.40793C19.2148 6.53069 21.0352 6.53069 22.1579 5.40793Z" fill="#979797"/>
<path d="M13.5329 5.40793C14.6557 4.28518 14.6557 2.46482 13.5329 1.34207C12.4102 0.219312 10.5898 0.219312 9.46707 1.34207C8.34431 2.46482 8.34431 4.28518 9.46707 5.40793C10.5898 6.53069 12.4102 6.53069 13.5329 5.40793Z" fill="#979797"/>
<path d="M4.90793 5.40793C6.03069 4.28518 6.03069 2.46482 4.90793 1.34207C3.78518 0.219312 1.96482 0.219312 0.842066 1.34207C-0.280689 2.46482 -0.280689 4.28518 0.842066 5.40793C1.96482 6.53069 3.78518 6.53069 4.90793 5.40793Z" fill="#979797"/>
</svg>
