<svg width="54" height="63" viewBox="0 0 54 63" fill="none" xmlns="http://www.w3.org/2000/svg">
<path d="M10.127 18.3574H30.3197V22.0288H10.127V18.3574Z" fill="#C4C4C4"/>
<path d="M40.3856 9.17871H0V52.0119C0 57.7477 4.66649 62.4142 10.4023 62.4142H41.7814C40.9004 61.1007 40.3856 59.522 40.3856 57.825C40.3856 45.502 40.3856 20.5586 40.3856 9.17871ZM13.7984 47.7286H6.45557V44.0572H13.7984V47.7286ZM13.7984 40.3857H6.45557V36.7143H13.7984V40.3857ZM13.7984 33.0429H6.45557V29.3715H13.7984V33.0429ZM33.9912 55.0714H17.4698V51.4H33.9912V55.0714ZM33.9912 47.7286H17.4698V44.0572H33.9912V47.7286ZM33.9912 40.3857H17.4698V36.7143H33.9912V40.3857ZM33.9912 33.0429H17.4698V29.3715H33.9912V33.0429ZM33.9912 25.7001H6.45557V14.6858H33.9912V25.7001Z" fill="#C4C4C4"/>
<path d="M5.50684 0V5.50712H44.0567V57.8248C44.0567 60.3594 46.1114 62.4141 48.646 62.4141C51.1806 62.4141 53.2352 60.3594 53.2352 57.8248C53.2352 54.9462 53.2352 2.57574 53.2352 0C52.4203 0 7.19312 0 5.50684 0Z" fill="#C4C4C4"/>
</svg>
