<svg width="14" height="14" viewBox="0 0 14 14" fill="none" xmlns="http://www.w3.org/2000/svg">
<path d="M8.09375 10.9922H5.90625C5.67973 10.9922 5.49609 11.1758 5.49609 11.4023V13.5898C5.49609 13.8164 5.67973 14 5.90625 14H8.09375C8.32027 14 8.50391 13.8164 8.50391 13.5898V11.4023C8.50391 11.1758 8.32027 10.9922 8.09375 10.9922Z" fill="#979797"/>
<path d="M13.5898 10.9922H11.4023C11.1758 10.9922 10.9922 11.1758 10.9922 11.4023V13.5898C10.9922 13.8164 11.1758 14 11.4023 14H13.5898C13.8164 14 14 13.8164 14 13.5898V11.4023C14 11.1758 13.8164 10.9922 13.5898 10.9922Z" fill="#979797"/>
<path d="M2.59766 10.9922H0.410156C0.183641 10.9922 0 11.1758 0 11.4023V13.5898C0 13.8164 0.183641 14 0.410156 14H2.59766C2.82417 14 3.00781 13.8164 3.00781 13.5898V11.4023C3.00781 11.1758 2.82417 10.9922 2.59766 10.9922Z" fill="#979797"/>
<path d="M1.91406 9.59766H6.58984V10.1719H7.41016V9.59766H12.0859V10.1719H12.9062V9.1875C12.9062 8.96098 12.7226 8.77734 12.4961 8.77734H7.41016V7.79297H6.58984V8.77734H1.50391C1.27739 8.77734 1.09375 8.96098 1.09375 9.1875V10.1719H1.91406V9.59766Z" fill="#979797"/>
<path d="M4.26562 6.96762H9.73438C9.96089 6.96762 10.1445 6.78398 10.1445 6.55746V5.87387C10.1445 4.81752 9.51065 3.90651 8.60336 3.50098C8.17236 3.87195 7.61193 4.09652 7 4.09652C6.38807 4.09652 5.82764 3.87195 5.39664 3.50098C4.48932 3.90651 3.85547 4.81752 3.85547 5.87387V6.55746C3.85547 6.78398 4.03911 6.96762 4.26562 6.96762Z" fill="#979797"/>
<path d="M7 3.28125C7.90609 3.28125 8.64062 2.54672 8.64062 1.64062C8.64062 0.734533 7.90609 0 7 0C6.09391 0 5.35938 0.734533 5.35938 1.64062C5.35938 2.54672 6.09391 3.28125 7 3.28125Z" fill="#979797"/>
</svg>
