<svg width="12" height="14" viewBox="0 0 12 14" fill="none" xmlns="http://www.w3.org/2000/svg">
<path d="M6.00121 0C4.08606 0 2.52051 1.56555 2.52051 3.4807C2.52051 5.39586 4.08606 6.96141 6.00121 6.96141C7.91637 6.96141 9.48191 5.39586 9.48191 3.4807C9.48191 1.56555 7.91637 0 6.00121 0Z" fill="#979797"/>
<path d="M11.9744 9.74248C11.8831 9.51448 11.7616 9.3017 11.6248 9.1041C10.9256 8.07051 9.84644 7.38654 8.63047 7.21934C8.47849 7.20416 8.31129 7.23453 8.18969 7.32574C7.5513 7.79692 6.79134 8.04011 6.00094 8.04011C5.21055 8.04011 4.45058 7.79692 3.8122 7.32574C3.69059 7.23453 3.52339 7.18894 3.37141 7.21934C2.15544 7.38654 1.06108 8.07051 0.37711 9.1041C0.240315 9.3017 0.118707 9.5297 0.0275299 9.74248C-0.0180587 9.83369 -0.00287221 9.94008 0.0427164 10.0313C0.164325 10.2441 0.316306 10.4569 0.453101 10.6393C0.665886 10.9281 0.893887 11.1864 1.15229 11.4296C1.36508 11.6424 1.60826 11.84 1.85148 12.0376C3.05223 12.9344 4.4962 13.4056 5.98575 13.4056C7.47531 13.4056 8.91928 12.9344 10.12 12.0376C10.3632 11.8552 10.6064 11.6424 10.8192 11.4296C11.0624 11.1864 11.3056 10.928 11.5184 10.6393C11.6704 10.4417 11.8072 10.2441 11.9288 10.0313C12.0048 9.94008 12.0199 9.83366 11.9744 9.74248Z" fill="#979797"/>
</svg>
