<svg width="12" height="14" viewBox="0 0 12 14" fill="none" xmlns="http://www.w3.org/2000/svg">
<path d="M4.09277 0V1.16787H5.26064V1.75178C5.66938 1.6934 6.01974 1.6934 6.4285 1.75178V1.16787H7.59637V0H4.09277Z" fill="#979797"/>
<path d="M9.81465 3.85365L10.2234 3.44491L10.6905 3.91207L11.5081 3.09456L9.75627 1.34277L8.93876 2.16028L9.40591 2.62741L8.88037 3.15294C6.07752 1.45954 2.45716 2.33543 0.822169 5.13829C-0.81282 7.94114 0.0630444 11.4447 2.80752 13.1381C5.55199 14.8315 9.17232 13.9556 10.8073 11.1528C12.2671 8.75865 11.8584 5.72223 9.81465 3.85365ZM5.84393 12.2038C3.56661 12.2038 1.75644 10.3937 1.75644 8.11635C1.75644 5.83903 3.56661 4.02883 5.84393 4.02883V8.11632H9.93142C9.93145 10.3936 8.12125 12.2038 5.84393 12.2038Z" fill="#979797"/>
</svg>
