<svg width="14" height="15" viewBox="0 0 14 15" fill="none" xmlns="http://www.w3.org/2000/svg">
<path d="M7 0.634277C3.14005 0.634277 0 3.77432 0 7.63428C0 11.4942 3.14005 14.6343 7 14.6343C10.86 14.6343 14 11.4942 14 7.63428C14 3.77432 10.86 0.634277 7 0.634277ZM10.3291 11.255C10.2153 11.3687 10.066 11.426 9.9167 11.426C9.76738 11.426 9.61795 11.3687 9.5043 11.255L6.5876 8.33838C6.47791 8.22932 6.4167 8.08107 6.4167 7.92598V4.13428C6.4167 3.81171 6.67796 3.55098 7 3.55098C7.32204 3.55098 7.5833 3.81171 7.5833 4.13428V7.68448L10.3291 10.4302C10.5571 10.6583 10.5571 11.0269 10.3291 11.255Z" fill="#979797"/>
</svg>
