<svg width="85" height="85" viewBox="0 0 85 85" fill="none" xmlns="http://www.w3.org/2000/svg">
<path d="M66.416 73.4244H52.6778H48.9783H48.1794V54.9967H54.2062C55.7346 54.9967 56.6377 53.2599 55.7346 52.0094L44.011 35.7875C43.2642 34.7454 41.7184 34.7454 40.9716 35.7875L29.2481 52.0094C28.3449 53.2599 29.2307 54.9967 30.7765 54.9967H36.8032V73.4244H36.0043H32.3049H16.3782C7.25991 72.9207 0 64.3929 0 55.153C0 48.7789 3.45627 43.221 8.57989 40.2163C8.11095 38.9485 7.8678 37.5937 7.8678 36.1696C7.8678 29.6565 13.1304 24.3939 19.6434 24.3939C21.0503 24.3939 22.405 24.6371 23.6729 25.106C27.4418 17.1166 35.5701 11.5762 45.0184 11.5762C57.2456 11.5935 67.3192 20.955 68.4655 32.887C77.8617 34.5022 85 43.2037 85 53.0515C85 63.5766 76.8022 72.6949 66.416 73.4244Z" fill="#FF7A62"/>
</svg>
