<svg width="20" height="19" viewBox="0 0 20 19" fill="none" xmlns="http://www.w3.org/2000/svg">
<path d="M6.66333 17.6066C6.66333 18.2242 6.22917 18.4792 5.74833 18.2242L0.558333 15.4579C0.401667 15.3789 0.27 15.2465 0.1625 15.0607C0.055 14.875 0 14.6902 0 14.508V0.977175C0 0.472445 0.284167 0.244072 0.926667 0.585298L6.63 3.62434C6.7125 3.71231 6.65167 3.10806 6.66333 17.6066ZM7.3775 4.88172L13.3375 15.1612L7.3775 12.0039V4.88172ZM20 5.09588V17.6066C20 17.8048 19.9483 17.9647 19.8433 18.0873C19.7392 18.21 19.5975 18.2713 19.4192 18.2713C19.2408 18.2713 19.0658 18.2197 18.895 18.1167L13.9733 15.505L20 5.09588ZM19.9667 3.67144C19.9667 3.69543 19.0125 5.35535 17.1042 8.65031C15.1958 11.9453 14.0775 13.8753 13.75 14.4369L9.3975 6.91131L13.0133 0.656387C13.21 0.311607 13.6133 0.251181 13.8842 0.395136L19.9225 3.60035C19.9517 3.61546 19.9667 3.63945 19.9667 3.67144Z" fill="#133142"/>
</svg>
