<svg width="27" height="19" viewBox="0 0 27 19" fill="none" xmlns="http://www.w3.org/2000/svg">
<path d="M26.4638 2.86839C26.1636 1.74691 25.2844 0.862673 24.1694 0.560738C22.1324 0 13.9843 0 13.9843 0C13.9843 0 5.83617 0 3.79915 0.539171C2.70558 0.841106 1.805 1.74691 1.50481 2.86839C0.96875 4.91724 0.96875 9.1659 0.96875 9.1659C0.96875 9.1659 0.96875 13.4361 1.50481 15.4634C1.805 16.5849 2.68414 17.4691 3.79915 17.7711C5.85761 18.3318 13.9843 18.3318 13.9843 18.3318C13.9843 18.3318 22.1324 18.3318 24.1694 17.7926C25.2844 17.4907 26.1636 16.6065 26.4638 15.485C26.9998 13.4361 26.9998 9.18747 26.9998 9.18747C26.9998 9.18747 27.0213 4.91724 26.4638 2.86839Z" fill="#133142"/>
<path d="M18.1703 9.16601L11.3945 5.24084V13.0912L18.1703 9.16601Z" fill="white"/>
</svg>
